<svg xmlns="http://www.w3.org/2000/svg" width="25.333" height="18.002" viewBox="0 0 25.333 18.002"><defs><style>.a{fill:#949cb0;}</style></defs><path class="a" d="M24.328,29.29H1.005a.955.955,0,0,0-1.005.9V46.4a.955.955,0,0,0,1.005.9H24.328a.955.955,0,0,0,1.005-.9V30.185A.955.955,0,0,0,24.328,29.29ZM4.937,41.464H2.946v1.195H4.73v.374H2.946v1.457H2.51v-3.4H4.937v.374ZM8.7,43.09c0,.884-.6,1.418-1.6,1.418s-1.609-.534-1.609-1.418v-2H5.93v2c0,.66.447,1.044,1.173,1.044s1.162-.384,1.162-1.044v-2H8.7Zm3.18,1.4H9.77v-3.4h.436V44.12h1.675Zm2.82,0H12.59v-3.4h.436V44.12H14.7v.369Zm4.036,0h-.971V43.168H16.185v1.321h-.971v-3.4h.971v1.4h1.582v-1.4h.971Zm2.368,0H19.5V42.531h.971V43.8h.693a.969.969,0,0,0,1.02-1.005,1,1,0,0,0-1.064-1.015H19.5v-.69h1.642a1.8,1.8,0,0,1,2.029,1.7C23.173,43.794,22.333,44.489,21.106,44.489Zm2.217-5.2H2.011V31.08H23.323Z" transform="translate(0 -29.29)"/><path class="a" d="M71.466,68.937h1.593V67.45h.917v-1.3h-.917V64.7H71.466v1.448H70.037l2.008-3.967H70.394L68.261,66.3V67.45h3.2Z" transform="translate(-62.218 -59.442)"/><path class="a" d="M148.356,67.276l.9-.994,1.786,2.654H153.1l-2.674-3.957,2.51-2.8h-1.988L148.356,65.1V62.18h-1.718v6.757h1.718Z" transform="translate(-133.625 -59.442)"/></svg>