<svg xmlns="http://www.w3.org/2000/svg" width="23.721" height="24.402" viewBox="0 0 23.721 24.402"><defs><style>.a{fill:#fff;}</style></defs><path class="a" d="M29.684,16.59a3.031,3.031,0,0,0,.709-2.026,3.112,3.112,0,0,0-.663-1.755,2.727,2.727,0,0,0-.648-3.138c-.811-.74-2.189-1.072-4.1-.98a16.014,16.014,0,0,0-2.511.321h-.005c-.255.046-.526.1-.8.163a8.9,8.9,0,0,1,.638-2.965c.714-2.174.674-3.837-.133-4.95A3.244,3.244,0,0,0,19.575,0a1.282,1.282,0,0,0-.985.449,3.433,3.433,0,0,0-.429,2.434C17.488,4.69,15.6,9.119,14,10.349a.546.546,0,0,0-.082.071,5.482,5.482,0,0,0-1,1.5,2.106,2.106,0,0,0-1.01-.255H8.8a2.124,2.124,0,0,0-2.123,2.123V22.08A2.124,2.124,0,0,0,8.8,24.2h3.113a2.118,2.118,0,0,0,1.225-.388l1.2.143a51.378,51.378,0,0,0,6.8.373c.607.046,1.179.071,1.709.071a11.449,11.449,0,0,0,2.373-.214,4.437,4.437,0,0,0,3.169-1.97,3.123,3.123,0,0,0,.347-1.954,3.255,3.255,0,0,0,1.158-2.648A3.447,3.447,0,0,0,29.684,16.59ZM8.8,22.825a.746.746,0,0,1-.745-.745v-8.3a.746.746,0,0,1,.745-.745h3.113a.746.746,0,0,1,.745.745v8.292a.746.746,0,0,1-.745.745H8.8Zm19.58-6.833a.686.686,0,0,0-.092.832,2.123,2.123,0,0,1,.235.852,2.042,2.042,0,0,1-.959,1.766.7.7,0,0,0-.235.786,1.8,1.8,0,0,1-.138,1.317,3.192,3.192,0,0,1-2.256,1.3,13.443,13.443,0,0,1-3.72.112h-.071a50.37,50.37,0,0,1-6.634-.362H14.5l-.515-.061a2.162,2.162,0,0,0,.046-.449v-8.3a2.159,2.159,0,0,0-.1-.633,4.265,4.265,0,0,1,.949-1.75c2.291-1.817,4.531-7.945,4.628-8.211a.646.646,0,0,0,.031-.342,3.189,3.189,0,0,1,.066-1.48,1.831,1.831,0,0,1,1.439.689c.521.72.5,2.005-.061,3.71-.857,2.6-.929,3.965-.25,4.567a1.112,1.112,0,0,0,1.112.2c.311-.071.607-.133.888-.179l.066-.015c1.567-.342,4.373-.551,5.348.337a1.468,1.468,0,0,1,.174,1.863.682.682,0,0,0,.122.888,1.933,1.933,0,0,1,.566,1.189A1.9,1.9,0,0,1,28.378,15.993Z" transform="translate(-6.675 0)"/></svg>