<svg xmlns="http://www.w3.org/2000/svg" width="14.83" height="14.83" viewBox="0 0 14.83 14.83"><defs><style>.a{fill:#fff;}</style></defs><g transform="translate(10.486 5.849)"><path class="a" d="M364.8,204.1l1.431-1.431a.434.434,0,0,0-.614-.614l-1.431,1.431-1.431-1.431a.434.434,0,0,0-.614.614l1.431,1.431-1.431,1.431a.434.434,0,0,0,.614.614l1.431-1.431,1.431,1.431a.434.434,0,0,0,.614-.614Z" transform="translate(-362.01 -201.927)"/></g><g transform="translate(0 0)"><g transform="translate(0 0)"><path class="a" d="M8.807.129A1.291,1.291,0,0,0,7.42.308L3.753,3.364H1.3A1.3,1.3,0,0,0,0,4.667v5.5a1.3,1.3,0,0,0,1.3,1.3H3.753L7.42,14.53a1.3,1.3,0,0,0,2.138-1V1.309A1.292,1.292,0,0,0,8.807.129ZM3.476,10.61H1.3a.44.44,0,0,1-.434-.44v-5.5A.435.435,0,0,1,1.3,4.233H3.476V10.61Zm5.213,2.918a.434.434,0,0,1-.713.334L4.345,10.836V4L7.976.975a.434.434,0,0,1,.713.334Z" transform="translate(0 -0.004)"/></g></g></svg>