<svg xmlns="http://www.w3.org/2000/svg" width="18.612" height="21.548" viewBox="0 0 18.612 21.548"><defs><style>.a{fill:#fff;}</style></defs><g transform="translate(0 0)"><path class="a" d="M52.1,8.287,39.368.442a2.943,2.943,0,0,0-4.485,2.506V18.567a2.974,2.974,0,0,0,2.936,2.981h.013a2.953,2.953,0,0,0,1.526-.459.84.84,0,1,0-.875-1.435,1.289,1.289,0,0,1-.655.213,1.306,1.306,0,0,1-1.265-1.3V2.948a1.262,1.262,0,0,1,1.923-1.075L51.214,9.718a1.262,1.262,0,0,1-.006,2.153l-9.2,5.634a.84.84,0,0,0,.877,1.433l9.2-5.633A2.943,2.943,0,0,0,52.1,8.287Z" transform="translate(-34.883 0)"/></g></svg>