<svg xmlns="http://www.w3.org/2000/svg" width="30.35" height="26.015" viewBox="0 0 30.35 26.015"><defs><style>.a{fill:#fff;}</style></defs><g transform="translate(0 0)"><g transform="translate(0)"><path class="a" d="M28.782,68.2h-3.49V58.235a2.66,2.66,0,0,0-2.529-2.768H7.588a2.66,2.66,0,0,0-2.529,2.768v3.321H2.283A2.4,2.4,0,0,0,0,64.054v14.93a2.4,2.4,0,0,0,2.283,2.5h8.079A2.3,2.3,0,0,0,12.5,79.822h8.741a.531.531,0,0,0,.506-.553V78.161A1.594,1.594,0,0,0,20.233,76.5H18.716V74.287h4.047v5.48a1.647,1.647,0,0,0,1.568,1.716h4.451a1.647,1.647,0,0,0,1.568-1.716V69.914A1.647,1.647,0,0,0,28.782,68.2ZM11.634,78.984a1.337,1.337,0,0,1-1.272,1.392H2.283a1.337,1.337,0,0,1-1.272-1.392v-.269H11.634v.269Zm0-1.376H1.012V65.43H11.634Zm0-13.284H1.012v-.269a1.337,1.337,0,0,1,1.272-1.392h8.079a1.337,1.337,0,0,1,1.272,1.392v.269Zm8.6,13.284a.531.531,0,0,1,.506.553v.553H12.646V77.608ZM12.646,76.5V74.287H17.7V76.5ZM22.763,73.18H12.646V71.519H22.763Zm0-3.266v.5H12.646V64.054a2.4,2.4,0,0,0-2.283-2.5H6.07V58.235a1.594,1.594,0,0,1,1.518-1.661H22.763a1.594,1.594,0,0,1,1.518,1.661V68.2A1.652,1.652,0,0,0,22.763,69.914Zm6.576,9.853a.584.584,0,0,1-.556.609H24.331a.584.584,0,0,1-.556-.609v-.5h5.564Zm0-1.605H23.774V71.519h5.564Zm0-7.749H23.774v-.5a.584.584,0,0,1,.556-.609h4.451a.584.584,0,0,1,.556.609Z" transform="translate(0 -55.467)"/></g></g></svg>