<svg xmlns="http://www.w3.org/2000/svg" width="26.742" height="26.744" viewBox="0 0 26.742 26.744"><defs><style>.a{fill:#fff;}</style></defs><g transform="translate(0)"><path class="a" d="M309.738,153.37a1.127,1.127,0,0,0-.242-.363l-3.342-3.342a1.114,1.114,0,1,0-1.576,1.576l1.441,1.441h-6.225a1.114,1.114,0,1,0,0,2.229h6.225l-1.441,1.441a1.114,1.114,0,1,0,1.576,1.576l3.342-3.342a1.1,1.1,0,0,0,.242-.363A1.115,1.115,0,0,0,309.738,153.37Z" transform="translate(-283.079 -141.538)"/><path class="a" d="M18.958,15.6a1.114,1.114,0,0,0-1.114,1.114v5.572H13.386V4.457a1.116,1.116,0,0,0-.795-1.068L8.721,2.229h9.122V7.8a1.114,1.114,0,1,0,2.229,0V1.114A1.114,1.114,0,0,0,18.958,0H1.128a.993.993,0,0,0-.115.021A1.1,1.1,0,0,0,.541.186C.517.2.487.2.463.221S.451.24.442.246A1.1,1.1,0,0,0,.145.6.91.91,0,0,0,.114.692,1.057,1.057,0,0,0,.026.953a.694.694,0,0,0,0,.1c0,.022-.016.042-.016.065V23.4a1.113,1.113,0,0,0,.9,1.092l11.143,2.229a1.037,1.037,0,0,0,.218.022,1.115,1.115,0,0,0,1.114-1.114V24.515h5.572A1.114,1.114,0,0,0,20.072,23.4V16.715A1.114,1.114,0,0,0,18.958,15.6Z" transform="translate(-0.014)"/></g></svg>