<svg xmlns="http://www.w3.org/2000/svg" width="25.702" height="26.084" viewBox="0 0 25.702 26.084"><defs><style>.a{fill:#fff;}</style></defs><g transform="translate(0)"><path class="a" d="M28.2,139.317H10.088l-.029.011H4.677a1.091,1.091,0,0,0-1.091,1.091V156.9h0a1.091,1.091,0,0,0,1.091,1.081H28.2a1.091,1.091,0,0,0,1.091-1.091v-16.48A1.091,1.091,0,0,0,28.2,139.317ZM9.6,144.766H5.783l1.907-4.174h3.815Zm5.7-4.174h3.815l-1.907,4.174H13.395Zm4.611,10.184-4.1,2.98A.936.936,0,0,1,14.324,153v-5.96a.936.936,0,0,1,1.486-.757l4.1,2.98a.936.936,0,0,1,0,1.515Zm4.908-6.009H21.006l1.907-4.174h3.815Z" transform="translate(-3.586 -131.895)"/><path class="a" d="M4.626,6.548H28.139a1.147,1.147,0,0,0,1.041-1.23V1.23A1.147,1.147,0,0,0,28.139,0H4.626A1.147,1.147,0,0,0,3.585,1.23V5.318A1.147,1.147,0,0,0,4.626,6.548ZM22.912,1.187h3.815L24.82,5.361H21Zm-7.611,0h3.815L17.208,5.361H13.394Zm-7.611,0H11.5L9.6,5.361H5.782Z" transform="translate(-3.585)"/></g></svg>