<svg xmlns="http://www.w3.org/2000/svg" width="29.747" height="20.089" viewBox="0 0 29.747 20.089"><defs><style>.a{fill:#fff;}</style></defs><g transform="translate(4.483 4.362)"><path class="a" d="M97.748,187.956v2.011a.435.435,0,0,0,.87,0v-2.011a.435.435,0,0,0-.87,0Z" transform="translate(-96.552 -185.818)"/><path class="a" d="M77.595,159.071h2.392a.435.435,0,0,0,0-.87H77.595a.435.435,0,1,0,0,.87Z" transform="translate(-77.16 -158.201)"/><path class="a" d="M77.595,249.687h2.392a.435.435,0,0,0,0-.87H77.595a.435.435,0,0,0,0,.87Z" transform="translate(-77.16 -243.552)"/><path class="a" d="M259.463,187.521a.435.435,0,0,0-.435.435v2.011a.435.435,0,1,0,.87,0v-2.011A.435.435,0,0,0,259.463,187.521Z" transform="translate(-248.461 -185.818)"/><path class="a" d="M228.968,187.956v2.011a.435.435,0,0,0,.87,0v-2.011a.435.435,0,0,0-.87,0Z" transform="translate(-220.148 -185.818)"/><path class="a" d="M224.9,159.071H227.3a.435.435,0,0,0,0-.87H224.9a.435.435,0,1,0,0,.87Z" transform="translate(-215.911 -158.201)"/><path class="a" d="M224.9,249.687H227.3a.435.435,0,0,0,0-.87H224.9a.435.435,0,1,0,0,.87Z" transform="translate(-215.911 -243.552)"/><path class="a" d="M390.376,189.966v-2.011a.435.435,0,1,0-.87,0v2.011a.435.435,0,0,0,.87,0Z" transform="translate(-371.359 -185.817)"/><path class="a" d="M360.123,190.4a.435.435,0,0,0,.435-.435v-2.011a.435.435,0,1,0-.87,0v2.011A.435.435,0,0,0,360.123,190.4Z" transform="translate(-343.273 -185.817)"/><path class="a" d="M419.872,187.956v2.011a.435.435,0,1,0,.87,0v-2.011a.435.435,0,0,0-.87,0Z" transform="translate(-399.96 -185.818)"/><path class="a" d="M369.353,159.071h2.392a.435.435,0,0,0,0-.87h-2.392a.435.435,0,1,0,0,.87Z" transform="translate(-351.967 -158.201)"/><path class="a" d="M371.744,248.817h-2.392a.435.435,0,0,0,0,.87h2.392a.435.435,0,1,0,0-.87Z" transform="translate(-351.966 -243.552)"/></g><path class="a" d="M28.8,99.987h-.881a1.315,1.315,0,0,0,.086-.469V84.424A1.309,1.309,0,0,0,26.7,83.117H19.993a1.3,1.3,0,0,0-.871.334,1.3,1.3,0,0,0-.871-.334H11.542a1.3,1.3,0,0,0-.871.334,1.3,1.3,0,0,0-.871-.334H3.091a1.309,1.309,0,0,0-1.307,1.307V99.518a1.3,1.3,0,0,0,.087.469H.945a.946.946,0,0,0-.945.945v1.33a.946.946,0,0,0,.945.945H4.188a.436.436,0,1,0,0-.871H.945a.073.073,0,0,1-.073-.073v-1.329a.073.073,0,0,1,.073-.073H28.8a.073.073,0,0,1,.073.073v1.33a.073.073,0,0,1-.073.073H6.265a.436.436,0,1,0,0,.871H28.8a.946.946,0,0,0,.945-.945v-1.33A.946.946,0,0,0,28.8,99.987Zm-17.261-16H18.25a.436.436,0,0,1,.436.436V95.557a.436.436,0,0,0,.872,0V84.424a.436.436,0,0,1,.436-.436H26.7a.436.436,0,0,1,.436.436V99.518a.433.433,0,0,1-.365.43c-.044.007-7.3.039-7.3.039a1.3,1.3,0,0,0,.087-.469V97.642a.436.436,0,1,0-.872,0v1.876a.436.436,0,0,1-.436.436H11.542a.436.436,0,0,1-.436-.436V84.424a.436.436,0,0,1,.436-.436Zm-8.887.436a.436.436,0,0,1,.436-.436H9.8a.436.436,0,0,1,.436.436V99.518a.436.436,0,0,1-.436.436H3.091a.436.436,0,0,1-.436-.436Z" transform="translate(0 -83.117)"/></svg>