<svg xmlns="http://www.w3.org/2000/svg" width="13.98" height="11.606" viewBox="0 0 13.98 11.606"><defs><style>.a{fill:#fff;}</style></defs><g transform="translate(0 -55.467)"><g transform="translate(0 55.467)"><path class="a" d="M13.258,61.146H11.65V56.7a1.2,1.2,0,0,0-1.165-1.235H3.5A1.2,1.2,0,0,0,2.33,56.7v1.482H1.052A1.086,1.086,0,0,0,0,59.3v6.66a1.086,1.086,0,0,0,1.052,1.115H4.773a1.056,1.056,0,0,0,.987-.741H9.786a.24.24,0,0,0,.233-.247v-.494a.721.721,0,0,0-.7-.741h-.7v-.988h1.864v2.445a.745.745,0,0,0,.722.765h2.05a.745.745,0,0,0,.722-.765v-4.4A.745.745,0,0,0,13.258,61.146Zm-7.9,4.812a.6.6,0,0,1-.586.621H1.052a.6.6,0,0,1-.586-.621v-.12H5.359v.12Zm0-.614H.466V59.912H5.359Zm0-5.926H.466V59.3a.6.6,0,0,1,.586-.621H4.773a.6.6,0,0,1,.586.621v.12ZM9.32,65.344a.24.24,0,0,1,.233.247v.247H5.825v-.494Zm-3.5-.494v-.988h2.33v.988Zm4.66-1.482H5.825v-.741h4.66Zm0-1.457v.222H5.825V59.3a1.086,1.086,0,0,0-1.052-1.115H2.8V56.7a.721.721,0,0,1,.7-.741h6.99a.721.721,0,0,1,.7.741v4.447A.746.746,0,0,0,10.485,61.912Zm3.029,4.4a.264.264,0,0,1-.256.272h-2.05a.264.264,0,0,1-.256-.272v-.222h2.563Zm0-.716H10.951V62.628h2.563Zm0-3.457H10.951v-.222a.264.264,0,0,1,.256-.272h2.05a.264.264,0,0,1,.256.272Z" transform="translate(0 -55.467)"/></g></g></svg>