<svg xmlns="http://www.w3.org/2000/svg" width="13.759" height="13.964" viewBox="0 0 13.759 13.964"><defs><style>.a{fill:#fff;}</style></defs><path class="a" d="M16.761,139.317H7.067l-.015.006H4.17a.584.584,0,0,0-.584.584v8.822h0a.584.584,0,0,0,.584.578H16.761a.584.584,0,0,0,.584-.584V139.9A.584.584,0,0,0,16.761,139.317ZM6.8,142.234H4.762L5.783,140H7.826ZM9.858,140H11.9l-1.021,2.235H8.837Zm2.468,5.452-2.2,1.6a.5.5,0,0,1-.8-.405V143.45a.5.5,0,0,1,.8-.405l2.2,1.6a.5.5,0,0,1,0,.811Zm2.627-3.217H12.911L13.933,140h2.042Z" transform="translate(-3.586 -135.344)"/><path class="a" d="M4.143,3.505H16.73a.614.614,0,0,0,.558-.658V.658A.614.614,0,0,0,16.73,0H4.143a.614.614,0,0,0-.558.658V2.847A.614.614,0,0,0,4.143,3.505ZM13.932.635h2.042L14.953,2.87H12.91Zm-4.075,0H11.9L10.878,2.87H8.836Zm-4.075,0H7.825L6.8,2.87H4.761Z" transform="translate(-3.585)"/></svg>