<svg xmlns="http://www.w3.org/2000/svg" width="14" height="9.455" viewBox="0 0 14 9.455"><defs><style>.a{fill:#fff;}</style></defs><g transform="translate(0 -83.117)"><g transform="translate(2.11 85.17)"><path class="a" d="M97.748,187.726v.946a.2.2,0,1,0,.409,0v-.946a.2.2,0,0,0-.409,0Z" transform="translate(-97.185 -186.719)"/><path class="a" d="M77.365,158.61h1.126a.2.2,0,0,0,0-.409H77.365a.2.2,0,1,0,0,.409Z" transform="translate(-77.16 -158.201)"/><path class="a" d="M77.365,249.226h1.126a.2.2,0,0,0,0-.409H77.365a.2.2,0,1,0,0,.409Z" transform="translate(-77.16 -246.339)"/><path class="a" d="M259.233,187.521a.2.2,0,0,0-.2.2v.946a.2.2,0,1,0,.409,0v-.946A.2.2,0,0,0,259.233,187.521Z" transform="translate(-254.055 -186.719)"/><path class="a" d="M228.968,187.726v.946a.2.2,0,1,0,.409,0v-.946a.2.2,0,0,0-.409,0Z" transform="translate(-224.817 -186.719)"/><path class="a" d="M224.675,158.61H225.8a.2.2,0,1,0,0-.409h-1.126a.2.2,0,0,0,0,.409Z" transform="translate(-220.442 -158.201)"/><path class="a" d="M224.675,249.226H225.8a.2.2,0,1,0,0-.409h-1.126a.2.2,0,0,0,0,.409Z" transform="translate(-220.442 -246.339)"/><path class="a" d="M389.915,188.671v-.946a.2.2,0,0,0-.409,0v.946a.2.2,0,1,0,.409,0Z" transform="translate(-380.965 -186.718)"/><path class="a" d="M359.893,188.876a.2.2,0,0,0,.2-.2v-.946a.2.2,0,0,0-.409,0v.946A.2.2,0,0,0,359.893,188.876Z" transform="translate(-351.963 -186.718)"/><path class="a" d="M419.872,187.726v.946a.2.2,0,0,0,.409,0v-.946a.2.2,0,0,0-.409,0Z" transform="translate(-410.501 -186.719)"/><path class="a" d="M369.123,158.61h1.126a.2.2,0,0,0,0-.409h-1.126a.2.2,0,1,0,0,.409Z" transform="translate(-360.94 -158.201)"/><path class="a" d="M370.247,248.817h-1.126a.2.2,0,0,0,0,.409h1.126a.2.2,0,1,0,0-.409Z" transform="translate(-360.939 -246.339)"/></g><path class="a" d="M13.555,91.057h-.414a.619.619,0,0,0,.041-.221v-7.1a.616.616,0,0,0-.615-.615H9.409a.613.613,0,0,0-.41.157.613.613,0,0,0-.41-.157H5.432a.613.613,0,0,0-.41.157.613.613,0,0,0-.41-.157H1.455a.616.616,0,0,0-.615.615v7.1a.612.612,0,0,0,.041.221H.445A.445.445,0,0,0,0,91.5v.626a.445.445,0,0,0,.445.445H1.971a.205.205,0,0,0,0-.41H.445a.035.035,0,0,1-.034-.034V91.5a.035.035,0,0,1,.034-.034H13.555a.035.035,0,0,1,.034.034v.626a.035.035,0,0,1-.034.034H2.948a.205.205,0,1,0,0,.41H13.555A.445.445,0,0,0,14,92.127V91.5A.445.445,0,0,0,13.555,91.057ZM5.432,83.527H8.589a.205.205,0,0,1,.205.205v5.24a.205.205,0,0,0,.41,0v-5.24a.205.205,0,0,1,.205-.205h3.157a.205.205,0,0,1,.205.205v7.1a.2.2,0,0,1-.172.2c-.021,0-3.436.018-3.436.018a.612.612,0,0,0,.041-.221v-.883a.205.205,0,1,0-.41,0v.883a.205.205,0,0,1-.205.205H5.432a.205.205,0,0,1-.205-.205v-7.1a.205.205,0,0,1,.205-.205Zm-4.182.205a.205.205,0,0,1,.205-.205H4.612a.205.205,0,0,1,.205.205v7.1a.205.205,0,0,1-.205.205H1.455a.205.205,0,0,1-.205-.205Z" transform="translate(0 0)"/></g></svg>