<svg xmlns="http://www.w3.org/2000/svg" width="24.867" height="12.981" viewBox="0 0 24.867 12.981"><defs><style>.a{fill:#e6e6e6;}</style></defs><g transform="translate(0)"><path class="a" d="M23.956,117.437l-11.51,11.511L.937,117.437a.541.541,0,0,0-.764.764l11.892,11.892a.541.541,0,0,0,.764,0L24.722,118.2a.541.541,0,1,0-.751-.778l-.013.013Z" transform="translate(-0.02 -117.272)"/><path class="a" d="M12.426,130.254a.54.54,0,0,1-.383-.158L.151,118.2a.541.541,0,0,1,.764-.764l11.511,11.51,11.51-11.511a.541.541,0,0,1,.778.751l-.013.013L12.808,130.095A.541.541,0,0,1,12.426,130.254Z" transform="translate(0 -117.273)"/></g></svg>