<svg xmlns="http://www.w3.org/2000/svg" width="35" height="35" viewBox="0 0 35 35"><defs><style>.a{fill:#fff;}</style></defs><g transform="translate(0 0)"><path class="a" d="M28.738,0H6.261A6.269,6.269,0,0,0,0,6.261V28.738A6.268,6.268,0,0,0,6.261,35H28.738A6.268,6.268,0,0,0,35,28.738V6.261A6.269,6.269,0,0,0,28.738,0Zm4.211,28.738a4.215,4.215,0,0,1-4.211,4.211H6.261a4.215,4.215,0,0,1-4.211-4.211V6.261A4.215,4.215,0,0,1,6.261,2.051H28.738a4.215,4.215,0,0,1,4.211,4.211Z" transform="translate(0 0)"/><path class="a" d="M89.455,82.531H73.838a3.221,3.221,0,0,0-6.107,0H65.292a1.025,1.025,0,0,0,0,2.051H67.73a3.221,3.221,0,0,0,6.107,0H89.455a1.025,1.025,0,1,0,0-2.051Zm-18.671,2.2a1.171,1.171,0,1,1,1.171-1.171A1.173,1.173,0,0,1,70.784,84.727Z" transform="translate(-59.874 -74.842)"/><path class="a" d="M89.455,211.064H87.017a3.221,3.221,0,0,0-6.107,0H65.292a1.025,1.025,0,0,0,0,2.051H80.91a3.221,3.221,0,0,0,6.107,0h2.438a1.025,1.025,0,1,0,0-2.051Zm-5.491,2.2a1.171,1.171,0,1,1,1.171-1.171A1.173,1.173,0,0,1,83.963,213.26Z" transform="translate(-59.874 -194.589)"/><path class="a" d="M89.455,339.6H78.231a3.221,3.221,0,0,0-6.107,0H65.292a1.025,1.025,0,0,0,0,2.051h6.831a3.221,3.221,0,0,0,6.107,0H89.455a1.025,1.025,0,1,0,0-2.051Zm-14.278,2.2a1.171,1.171,0,1,1,1.171-1.171A1.172,1.172,0,0,1,75.177,341.793Z" transform="translate(-59.874 -314.336)"/></g></svg>