<svg xmlns="http://www.w3.org/2000/svg" width="23.766" height="16.889" viewBox="0 0 23.766 16.889"><defs><style>.a{fill:#949cb0;}</style></defs><g transform="translate(0 0)"><path class="a" d="M22.823,29.29H.943A.9.9,0,0,0,0,30.13V45.339a.9.9,0,0,0,.943.84h21.88a.9.9,0,0,0,.943-.84V30.13A.9.9,0,0,0,22.823,29.29ZM4.631,40.71H2.763v1.121H4.437v.351H2.763v1.367H2.354V40.36H4.631v.351Zm3.531,1.526c0,.829-.563,1.33-1.5,1.33s-1.51-.5-1.51-1.33V40.36h.409v1.877c0,.62.419.98,1.1.98s1.09-.36,1.09-.98V40.36h.409Zm2.984,1.312H9.166V40.36h.409V43.2h1.571Zm2.646,0h-1.98V40.36h.409V43.2h1.571v.346Zm3.787,0h-.911V42.31H15.184v1.239h-.911V40.36h.911v1.312h1.484V40.36h.911Zm2.221,0H18.3V41.712h.911V42.9h.65a.91.91,0,0,0,.957-.943.936.936,0,0,0-1-.952H18.3V40.36h1.54a1.684,1.684,0,0,1,1.9,1.594C21.739,42.9,20.951,43.549,19.8,43.549Zm2.08-4.881H1.886v-7.7H21.88Z" transform="translate(0 -29.29)"/><path class="a" d="M71.267,68.519h1.494V67.124h.86V65.9h-.86V64.543H71.267V65.9h-1.34l1.883-3.722H70.262l-2,3.867v1.077h3.006Z" transform="translate(-62.592 -59.611)"/><path class="a" d="M148.25,66.961l.842-.933,1.675,2.49H152.7l-2.508-3.713,2.354-2.626h-1.865l-2.427,2.744V62.18h-1.612v6.339h1.612Z" transform="translate(-134.43 -59.611)"/></g></svg>