<svg xmlns="http://www.w3.org/2000/svg" width="17.846" height="18.359" viewBox="0 0 17.846 18.359"><defs><style>.a{fill:#fff;}</style></defs><path class="a" d="M23.986,12.481a2.281,2.281,0,0,0,.534-1.524,2.342,2.342,0,0,0-.5-1.321,2.052,2.052,0,0,0-.488-2.361,4.239,4.239,0,0,0-3.083-.737,12.048,12.048,0,0,0-1.889.242h0c-.192.035-.4.077-.6.123a6.7,6.7,0,0,1,.48-2.231c.537-1.635.507-2.887-.1-3.724A2.44,2.44,0,0,0,16.38,0a.964.964,0,0,0-.741.338,2.583,2.583,0,0,0-.322,1.831c-.507,1.359-1.927,4.691-3.129,5.617a.411.411,0,0,0-.061.054,4.124,4.124,0,0,0-.752,1.129,1.584,1.584,0,0,0-.76-.192H8.272a1.6,1.6,0,0,0-1.6,1.6v6.239a1.6,1.6,0,0,0,1.6,1.6h2.342a1.594,1.594,0,0,0,.921-.292l.9.107a38.654,38.654,0,0,0,5.118.28c.457.035.887.054,1.286.054a8.614,8.614,0,0,0,1.785-.161,3.338,3.338,0,0,0,2.384-1.482,2.35,2.35,0,0,0,.261-1.47,2.449,2.449,0,0,0,.871-1.993A2.593,2.593,0,0,0,23.986,12.481ZM8.272,17.173a.561.561,0,0,1-.561-.561V10.37a.561.561,0,0,1,.561-.561h2.342a.561.561,0,0,1,.561.561v6.239a.561.561,0,0,1-.561.561H8.272ZM23,12.032a.516.516,0,0,0-.069.626,1.6,1.6,0,0,1,.177.641,1.536,1.536,0,0,1-.722,1.328.523.523,0,0,0-.177.591,1.356,1.356,0,0,1-.1.991,2.4,2.4,0,0,1-1.7.975,10.114,10.114,0,0,1-2.8.084h-.054A37.9,37.9,0,0,1,12.568,17h0l-.388-.046a1.627,1.627,0,0,0,.035-.338V10.37a1.624,1.624,0,0,0-.073-.476,3.209,3.209,0,0,1,.714-1.317C14.576,7.21,16.261,2.6,16.334,2.4a.486.486,0,0,0,.023-.257,2.4,2.4,0,0,1,.05-1.113,1.377,1.377,0,0,1,1.083.518c.392.541.376,1.509-.046,2.791-.645,1.954-.7,2.983-.188,3.436a.837.837,0,0,0,.837.15c.234-.054.457-.1.668-.134l.05-.012c1.179-.257,3.29-.415,4.023.253a1.1,1.1,0,0,1,.131,1.4.513.513,0,0,0,.092.668,1.454,1.454,0,0,1,.426.895A1.426,1.426,0,0,1,23,12.032Z" transform="translate(-6.675 0)"/></svg>