<svg xmlns="http://www.w3.org/2000/svg" width="15.151" height="21.482" viewBox="0 0 15.151 21.482"><defs><style>.a{fill:#fff;}</style></defs><path class="a" d="M14.212,21.476H.938a.851.851,0,0,1-.1.006A.835.835,0,0,1,0,20.647V9.259A.839.839,0,0,1,.026,9.05.839.839,0,0,1,.839,8H3.791a.838.838,0,1,1,0,1.677H1.677V19.8h11.8V9.68H11.36A.838.838,0,1,1,11.36,8h2.952a.839.839,0,0,1,.812,1.047.839.839,0,0,1,.026.209V20.647a.835.835,0,0,1-.835.835A.851.851,0,0,1,14.212,21.476ZM6.727,13.046V3.092L4.937,4.883A.843.843,0,0,1,3.745,3.692l2.68-2.681a.841.841,0,0,1,.3-.194.848.848,0,0,1,1.694,0,.837.837,0,0,1,.3.195l2.681,2.681a.843.843,0,0,1-1.192,1.192L8.423,3.09v9.957a.848.848,0,0,1-1.7,0Z"/></svg>