<svg xmlns="http://www.w3.org/2000/svg" width="16.035" height="15.334" viewBox="0 0 16.035 15.334"><defs><style>.a{fill:#fcc537;}</style></defs><path class="a" d="M8.792,1.528,10.6,5.193a.863.863,0,0,0,.65.472l4.044.588a.863.863,0,0,1,.479,1.473l-2.926,2.852a.864.864,0,0,0-.248.764l.691,4.028a.864.864,0,0,1-1.253.91l-3.617-1.9a.864.864,0,0,0-.8,0L4,16.28a.864.864,0,0,1-1.253-.91l.691-4.028a.864.864,0,0,0-.248-.764L.262,7.725A.863.863,0,0,1,.741,6.253l4.044-.588a.863.863,0,0,0,.65-.472L7.244,1.528A.863.863,0,0,1,8.792,1.528Z" transform="translate(-0.001 -1.047)"/></svg>