<svg xmlns="http://www.w3.org/2000/svg" width="73.896" height="117.893" viewBox="0 0 73.896 117.893"><defs><style>.a{fill:#fff;}</style></defs><g transform="translate(-95.538)"><g transform="translate(95.538 0)"><path class="a" d="M169.207,102.376a11.778,11.778,0,0,0-.9-3.39l-.016-.035a6.025,6.025,0,0,0-1.844-2.377,4.669,4.669,0,0,0-2.816-.92h-16.1V5a4.565,4.565,0,0,0-.743-2.583A4.546,4.546,0,0,0,144.129.66a16.689,16.689,0,0,0-3.6-.536c-1.308-.085-3-.124-5.494-.124-1.841,0-3.3,0-4.454.03-1.213.032-2.211.1-2.956.2a11.305,11.305,0,0,0-2.164.456L125.418.7a6,6,0,0,0-1.627.852L99.706,17.143l-.064.043a12.325,12.325,0,0,0-1.976,1.6A6.123,6.123,0,0,0,96.2,21.2a10.348,10.348,0,0,0-.569,2.893c-.062.94-.094,2.15-.094,3.6a39.472,39.472,0,0,0,.292,5.47,6.8,6.8,0,0,0,1.581,3.8L97.46,37a4.452,4.452,0,0,0,3.961,1.187l.09-.014a15.744,15.744,0,0,0,3.823-1.377q.061-.029.12-.062l14.665-8.091V50.989a2.3,2.3,0,0,0,4.605,0V24.746a2.3,2.3,0,0,0-3.415-2.016L103.29,32.671a11.607,11.607,0,0,1-2.543.962l-.069.007a4.387,4.387,0,0,1-.292-1.152,35.8,35.8,0,0,1-.243-4.8c0-1.345.028-2.452.084-3.291a5.673,5.673,0,0,1,.3-1.62c.015-.04.029-.08.042-.121a1.508,1.508,0,0,1,.384-.643l.059-.062a9,9,0,0,1,1.229-.962L126.375,5.363q.1-.063.186-.134a1.407,1.407,0,0,1,.382-.186,7.2,7.2,0,0,1,1.269-.25c.6-.078,1.439-.132,2.494-.16,1.1-.028,2.526-.028,4.334-.028,2.388,0,3.99.035,5.194.114a12.285,12.285,0,0,1,2.567.35l.026.008.093.029V97.956a2.3,2.3,0,0,0,2.3,2.3h18.407a.323.323,0,0,1,.052,0,.247.247,0,0,1,.041.026,1.854,1.854,0,0,1,.4.633,7.472,7.472,0,0,1,.514,2.048,31.95,31.95,0,0,1,.189,3.923,24.918,24.918,0,0,1-.239,3.768,7.362,7.362,0,0,1-.527,2.03c-.018.037-.036.074-.053.112a1.564,1.564,0,0,1-.268.45l-.027.019a.071.071,0,0,1-.057.016h-62.2l-.024-.016a2.283,2.283,0,0,1-.33-.545l-.018-.036a7.368,7.368,0,0,1-.527-2.032,24.878,24.878,0,0,1-.239-3.767,31.929,31.929,0,0,1,.188-3.915,7.508,7.508,0,0,1,.515-2.056,2.408,2.408,0,0,1,.417-.662h20.981a2.3,2.3,0,0,0,2.3-2.3V71.713a2.3,2.3,0,0,0-4.605,0V95.654H101.4a4.354,4.354,0,0,0-2.82.992,6.394,6.394,0,0,0-1.721,2.306l-.016.034a11.789,11.789,0,0,0-.9,3.4,35.8,35.8,0,0,0-.227,4.509,28.99,28.99,0,0,0,.3,4.486,11.615,11.615,0,0,0,.948,3.353,5.71,5.71,0,0,0,1.813,2.3,4.539,4.539,0,0,0,2.631.865h62.255a4.675,4.675,0,0,0,2.72-.865,5.562,5.562,0,0,0,1.831-2.335,11.711,11.711,0,0,0,.93-3.316,29.018,29.018,0,0,0,.3-4.486A35.852,35.852,0,0,0,169.207,102.376Z" transform="translate(-95.538 0)"/><path class="a" d="M204.6,261.048a2.3,2.3,0,1,0,0-4.605h0a2.3,2.3,0,1,0,0,4.605Z" transform="translate(-177.714 -197.394)"/></g></g></svg>