<svg xmlns="http://www.w3.org/2000/svg" width="32.288" height="47.997" viewBox="0 0 32.288 47.997"><defs><style>.a{fill:#fff;}</style></defs><g transform="translate(-83.786)"><g transform="translate(83.786 0)"><path class="a" d="M115.956,41.469a4.773,4.773,0,0,0-.4-1.42,2.428,2.428,0,0,0-.819-1,2,2,0,0,0-1.182-.384H97.926l3.733-3.817a89.657,89.657,0,0,0,6.484-7.029,37.642,37.642,0,0,0,3.851-5.61,17.693,17.693,0,0,0,1.852-4.88,23.858,23.858,0,0,0,.436-4.518,13.738,13.738,0,0,0-.926-5.053,10.939,10.939,0,0,0-2.848-4.129,13.359,13.359,0,0,0-4.73-2.681A20.376,20.376,0,0,0,99.284,0a22.94,22.94,0,0,0-4.494.438,29.952,29.952,0,0,0-3.913,1.074,19.558,19.558,0,0,0-3.034,1.331,9.706,9.706,0,0,0-1.794,1.194l-.028.027a5.254,5.254,0,0,0-.742.883l-.013.022a3.392,3.392,0,0,0-.378.958A7.021,7.021,0,0,0,84.7,7c-.036.373-.052.821-.052,1.453a20.088,20.088,0,0,0,.089,2.108,10.545,10.545,0,0,0,.25,1.455c0,.013.007.026.01.039a2.285,2.285,0,0,0,.648,1.129,1.72,1.72,0,0,0,1.172.451,3.253,3.253,0,0,0,1.781-.711c.5-.335,1.139-.711,1.939-1.146a16.266,16.266,0,0,1,2.644-1.106,10.911,10.911,0,0,1,3.368-.48,5.985,5.985,0,0,1,2.2.36,4.064,4.064,0,0,1,1.474.978,4.18,4.18,0,0,1,.893,1.474,5.474,5.474,0,0,1,.315,1.869,11.63,11.63,0,0,1-.277,2.466,13.013,13.013,0,0,1-1.028,2.852.937.937,0,1,0,1.688.817,14.876,14.876,0,0,0,1.172-3.269,13.5,13.5,0,0,0,.32-2.866,7.328,7.328,0,0,0-.424-2.5,6.033,6.033,0,0,0-1.286-2.121,5.9,5.9,0,0,0-2.143-1.439,7.832,7.832,0,0,0-2.907-.5,12.767,12.767,0,0,0-3.949.572,18.135,18.135,0,0,0-2.955,1.239c-.857.466-1.541.871-2.092,1.239l-.012.008a2.789,2.789,0,0,1-.665.367,1.546,1.546,0,0,1-.074-.2,8.751,8.751,0,0,1-.2-1.181,18.253,18.253,0,0,1-.078-1.907c0-.562.014-.966.043-1.27a5.165,5.165,0,0,1,.142-.8l.007-.029a1.57,1.57,0,0,1,.162-.426,3.545,3.545,0,0,1,.456-.526,8.143,8.143,0,0,1,1.425-.924A17.741,17.741,0,0,1,91.5,3.28a28.073,28.073,0,0,1,3.661-1,21.052,21.052,0,0,1,4.12-.4,18.525,18.525,0,0,1,5.891.847,11.505,11.505,0,0,1,4.071,2.293,8.958,8.958,0,0,1,2.364,3.427,11.872,11.872,0,0,1,.8,4.367,21.961,21.961,0,0,1-.4,4.156,15.858,15.858,0,0,1-1.663,4.353,35.808,35.808,0,0,1-3.658,5.319,87.882,87.882,0,0,1-6.351,6.881l-.01.01-5.3,5.416a.937.937,0,0,0,.67,1.593h17.861a.115.115,0,0,1,.083.028l.053.037a.673.673,0,0,1,.178.264l.007.013a3.152,3.152,0,0,1,.222.868,10.742,10.742,0,0,1,.1,1.558,13.628,13.628,0,0,1-.076,1.629,4.9,4.9,0,0,1-.211.959.713.713,0,0,1-.123.212.184.184,0,0,1-.087.017H87.629a4.475,4.475,0,0,1-1.093-.114.832.832,0,0,1-.436-.245,1.7,1.7,0,0,1-.3-.748,9.342,9.342,0,0,1-.135-1.8,14.819,14.819,0,0,1,.1-1.863,4.37,4.37,0,0,1,.31-1.211,6.436,6.436,0,0,1,.623-1.091A10.637,10.637,0,0,1,87.75,37.8l.013-.014L95.614,29.4c.4-.418.782-.828,1.135-1.218a.937.937,0,0,0-1.389-1.259c-.343.379-.715.778-1.1,1.185l-.007.007L86.4,36.5a12.489,12.489,0,0,0-1.235,1.458,8.326,8.326,0,0,0-.808,1.415A6.187,6.187,0,0,0,83.9,41.1a16.4,16.4,0,0,0-.115,2.106,10.958,10.958,0,0,0,.175,2.189,3.435,3.435,0,0,0,.722,1.592,2.7,2.7,0,0,0,1.384.833A6.313,6.313,0,0,0,87.629,48H113.7a2.044,2.044,0,0,0,1.165-.356l.023-.016a2.355,2.355,0,0,0,.77-1.053l.015-.041a6.723,6.723,0,0,0,.307-1.362,15.392,15.392,0,0,0,.091-1.862,12.605,12.605,0,0,0-.118-1.837Z" transform="translate(-83.786 0)"/><path class="a" d="M234.99,250a.938.938,0,0,0-.937-.937h0a.937.937,0,1,0,.938.937Z" transform="translate(-219.116 -225.713)"/></g></g></svg>