<svg xmlns="http://www.w3.org/2000/svg" width="31.88" height="48.367" viewBox="0 0 31.88 48.367"><defs><style>.a{fill:#f4eaea;}</style></defs><g transform="translate(-87.264)"><g transform="translate(87.264 0)"><path class="a" d="M118.379,29.4a10.817,10.817,0,0,0-2.179-3.438,11.668,11.668,0,0,0-3.448-2.5,12.405,12.405,0,0,0-1.513-.621q.442-.232.852-.5a10.057,10.057,0,0,0,2.764-2.61,11.036,11.036,0,0,0,1.668-3.449,14.511,14.511,0,0,0,.559-4.08,13.145,13.145,0,0,0-.961-5.112,10.157,10.157,0,0,0-2.861-3.9A12.936,12.936,0,0,0,108.7.81,20.932,20.932,0,0,0,102.659,0a24.7,24.7,0,0,0-4.824.446,25.836,25.836,0,0,0-3.913,1.1A18.1,18.1,0,0,0,91.065,2.9,10.237,10.237,0,0,0,89.489,4l-.018.017a3.618,3.618,0,0,0-.658.818,3.971,3.971,0,0,0-.34.858l0,.011A5.74,5.74,0,0,0,88.3,6.857c-.025.413-.037.9-.037,1.5a17.687,17.687,0,0,0,.077,1.819,5.571,5.571,0,0,0,.249,1.218l.014.038a1.835,1.835,0,0,0,.74.93,1.8,1.8,0,0,0,.966.257,3.584,3.584,0,0,0,1.8-.7c.589-.365,1.288-.759,2.078-1.171a20.222,20.222,0,0,1,2.73-1.12,9.307,9.307,0,0,1,3.08-.493,6.945,6.945,0,0,1,2.437.377l.012,0a4.847,4.847,0,0,1,.836.394.945.945,0,1,0,.972-1.62,6.745,6.745,0,0,0-1.157-.547,8.684,8.684,0,0,0-3.1-.5,11.309,11.309,0,0,0-3.686.593,22.045,22.045,0,0,0-2.983,1.226l-.009,0c-.833.434-1.575.852-2.205,1.243a3.972,3.972,0,0,1-.761.4,4.076,4.076,0,0,1-.135-.736,16.106,16.106,0,0,1-.066-1.618c0-.559.011-1.013.034-1.386a3.991,3.991,0,0,1,.109-.764,2.213,2.213,0,0,1,.174-.454l.01-.019a2.028,2.028,0,0,1,.322-.371,10.161,10.161,0,0,1,1.253-.853,16.2,16.2,0,0,1,2.546-1.2A23.931,23.931,0,0,1,98.213,2.3a22.829,22.829,0,0,1,4.446-.408,19.052,19.052,0,0,1,5.493.729,11.059,11.059,0,0,1,3.895,2.021,8.286,8.286,0,0,1,2.332,3.185,11.12,11.12,0,0,1,.815,4.384,12.631,12.631,0,0,1-.484,3.551,9.158,9.158,0,0,1-1.383,2.868l-.008.011a8.066,8.066,0,0,1-2.254,2.122,10.364,10.364,0,0,1-3.192,1.332.945.945,0,0,0-.721.918v.107a.945.945,0,0,0,.832.938,12.083,12.083,0,0,1,3.94,1.108,9.8,9.8,0,0,1,2.9,2.094,8.816,8.816,0,0,1,1.8,2.842,9.169,9.169,0,0,1,.632,3.406,12.428,12.428,0,0,1-1.179,5.535,11.529,11.529,0,0,1-3.307,4.032,15.529,15.529,0,0,1-5.154,2.529,24.689,24.689,0,0,1-6.719.876,25.368,25.368,0,0,1-4.143-.319,24.368,24.368,0,0,1-3.421-.8l-.009,0a14.272,14.272,0,0,1-2.392-.955,7.964,7.964,0,0,1-1.133-.671.9.9,0,0,1-.224-.29,5.468,5.468,0,0,1-.224-.664,5.962,5.962,0,0,1-.15-1.02c-.03-.4-.045-.915-.045-1.633a5.806,5.806,0,0,1,.2-1.925c.008-.018.015-.032.022-.045a4.654,4.654,0,0,1,.7.325,23.038,23.038,0,0,0,2.262,1.04,26.167,26.167,0,0,0,3.209,1.034,17.047,17.047,0,0,0,4.265.492,12.525,12.525,0,0,0,3.639-.491,8.629,8.629,0,0,0,2.791-1.413l.014-.011a6.212,6.212,0,0,0,1.8-2.316l0-.011a7.4,7.4,0,0,0,.574-2.944,7.278,7.278,0,0,0-.7-3.208l0-.01a6.709,6.709,0,0,0-2.1-2.459,9.665,9.665,0,0,0-3.337-1.514,17.871,17.871,0,0,0-4.529-.517H94.072a1.389,1.389,0,0,1-.4-.044.4.4,0,0,1-.058-.084,2.314,2.314,0,0,1-.193-.732,13.12,13.12,0,0,1-.075-1.618,11.656,11.656,0,0,1,.074-1.516,1.884,1.884,0,0,1,.166-.64c.01-.017.019-.034.027-.051a.3.3,0,0,1,.033-.055.761.761,0,0,1,.306-.051h3.909a13.017,13.017,0,0,0,3.827-.514,8.37,8.37,0,0,0,2.948-1.516A6.685,6.685,0,0,0,106.29,17.3a.945.945,0,0,0-1.671-.882,4.732,4.732,0,0,1-1.184,1.451,6.408,6.408,0,0,1-2.288,1.164l-.012,0a11.139,11.139,0,0,1-3.273.431H93.953a2.6,2.6,0,0,0-1.1.227,1.918,1.918,0,0,0-.915.9,3.691,3.691,0,0,0-.388,1.3,13.227,13.227,0,0,0-.092,1.776,14.651,14.651,0,0,0,.091,1.864,4.126,4.126,0,0,0,.4,1.369l.007.014a2.021,2.021,0,0,0,.991.931l.017.007a2.994,2.994,0,0,0,1.112.183h3.885A16.005,16.005,0,0,1,102,28.5,7.806,7.806,0,0,1,104.7,29.7l.013.009a4.775,4.775,0,0,1,1.517,1.771,5.338,5.338,0,0,1,.507,2.378,5.528,5.528,0,0,1-.418,2.191,4.278,4.278,0,0,1-1.249,1.6,6.755,6.755,0,0,1-2.177,1.093,10.654,10.654,0,0,1-3.088.409,15.173,15.173,0,0,1-3.789-.432,24.3,24.3,0,0,1-2.974-.956,21.121,21.121,0,0,1-2.072-.95,3.721,3.721,0,0,0-1.646-.576,1.849,1.849,0,0,0-1.7,1.2l-.009.021a7.388,7.388,0,0,0-.345,2.661c0,.768.016,1.333.05,1.776a7.7,7.7,0,0,0,.207,1.359,7.277,7.277,0,0,0,.314.926l.009.021a2.774,2.774,0,0,0,.708.946l.023.019a8.877,8.877,0,0,0,1.48.9,16.125,16.125,0,0,0,2.7,1.083,26.238,26.238,0,0,0,3.682.86,27.251,27.251,0,0,0,4.455.344,26.581,26.581,0,0,0,7.24-.949,17.417,17.417,0,0,0,5.784-2.846,13.408,13.408,0,0,0,3.849-4.69,14.3,14.3,0,0,0,1.377-6.376,11.039,11.039,0,0,0-.764-4.1Z" transform="translate(-87.264 0)"/><path class="a" d="M278.49,124.958a.945.945,0,0,0-.945-.945h0a.945.945,0,1,0,.945.945Z" transform="translate(-258.714 -112.298)"/></g></g></svg>