<svg xmlns="http://www.w3.org/2000/svg" width="32.506" height="43.605" viewBox="0 0 32.506 43.605"><defs><style>.a{fill:#fff;}</style></defs><g transform="translate(-93.162 89)"><g transform="translate(93.162 -89)"><path class="a" d="M156.414,85.6h-.066a.852.852,0,0,0-.739.429l-3.547,6.2a.852.852,0,0,0,1.478.846l2.022-3.532v15.107h-8.648l2.817-4.922a.852.852,0,1,0-1.478-.846l-3.547,6.2a.852.852,0,0,0,.739,1.275h10.968a.852.852,0,0,0,.852-.852V86.451A.852.852,0,0,0,156.414,85.6Z" transform="translate(-137.829 -78.309)"/><path class="a" d="M97.216,27.615a1.818,1.818,0,0,0-1.647-1.279H92.742V2.231a1.617,1.617,0,0,0-.62-1.264l-.038-.03A3.6,3.6,0,0,0,90.762.365,11.359,11.359,0,0,0,88.755.079C88.012.026,87.075,0,85.892,0c-1.019,0-1.9.023-2.614.067A13.11,13.11,0,0,0,81.4.293a4.794,4.794,0,0,0-1.3.434l-.013.007a2.261,2.261,0,0,0-.862.8l-.007.012L66.335,24.273l-.008.015a11.452,11.452,0,0,0-.58,1.242l-.011.029a8.678,8.678,0,0,0-.351,1.286,12.294,12.294,0,0,0-.177,1.471c-.032.483-.046,1.051-.046,1.84a14.632,14.632,0,0,0,.119,2.142,4.256,4.256,0,0,0,.449,1.448l.021.035a1.958,1.958,0,0,0,1.06.873,3.4,3.4,0,0,0,1.064.152h15.02v6.668a1.757,1.757,0,0,0,.34,1.062,2.128,2.128,0,0,0,1.046.7l.026.009a7.306,7.306,0,0,0,1.431.277,20,20,0,0,0,2.037.081,20.285,20.285,0,0,0,2.082-.081,7.859,7.859,0,0,0,1.413-.272l.033-.011a2.162,2.162,0,0,0,1.065-.691,1.728,1.728,0,0,0,.373-1.077V34.8h2.826a1.826,1.826,0,0,0,1.7-1.393,7.736,7.736,0,0,0,.4-2.808A7.189,7.189,0,0,0,97.216,27.615ZM95.687,32.78l-.005.013a1.046,1.046,0,0,1-.164.308H91.891a.852.852,0,0,0-.852.852v7.52a.1.1,0,0,1,0,.012.078.078,0,0,1-.01.014l-.005.007a1.058,1.058,0,0,1-.259.119,6.189,6.189,0,0,1-1.087.2,18.97,18.97,0,0,1-1.9.072c-.786,0-1.395-.024-1.86-.072a5.764,5.764,0,0,1-1.073-.2,1.013,1.013,0,0,1-.238-.113.148.148,0,0,1,0-.044v-7.52a.852.852,0,0,0-.852-.852H67.875a1.7,1.7,0,0,1-.53-.066l-.011,0a.357.357,0,0,1-.127-.137,2.71,2.71,0,0,1-.242-.854,13.3,13.3,0,0,1-.1-1.886c0-.74.013-1.29.042-1.729a10.6,10.6,0,0,1,.151-1.265,6.98,6.98,0,0,1,.279-1.021,9.73,9.73,0,0,1,.484-1.035L80.695,2.4a.651.651,0,0,1,.224-.177,3.418,3.418,0,0,1,.839-.263,11.513,11.513,0,0,1,1.626-.191c.681-.042,1.524-.064,2.508-.064,1.142,0,2.039.024,2.742.075a9.86,9.86,0,0,1,1.705.237l.018,0a2.078,2.078,0,0,1,.681.263V27.188a.852.852,0,0,0,.852.852h3.6a1.159,1.159,0,0,1,.175.291l.006.013a5.69,5.69,0,0,1,.289,2.259A6.282,6.282,0,0,1,95.687,32.78Z" transform="translate(-65.162 0)"/><path class="a" d="M209.448,199.12a.852.852,0,0,0,0-1.7h0a.852.852,0,0,0,0,1.7Z" transform="translate(-196.38 -180.604)"/></g></g></svg>