<svg xmlns="http://www.w3.org/2000/svg" width="31.366" height="47.686" viewBox="0 0 31.366 47.686"><defs><style>.a{fill:#fff;}</style></defs><g transform="translate(-87.613)"><g transform="translate(87.613 0)"><path class="a" d="M117.9,25.293a11.62,11.62,0,0,0-3.2-4.46,13.858,13.858,0,0,0-5.113-2.692,23.532,23.532,0,0,0-6.766-.895c-.889,0-1.746.012-2.546.036-.486.014-.975.041-1.464.081V9.7h15.1a2.035,2.035,0,0,0,1.926-1.534,9.69,9.69,0,0,0,.431-3.365,16.23,16.23,0,0,0-.089-1.9,5.357,5.357,0,0,0-.349-1.458A2.4,2.4,0,0,0,115.063.4a1.917,1.917,0,0,0-1.149-.4H92.582a3.11,3.11,0,0,0-2.41.91l-.01.011a3.815,3.815,0,0,0-.767,2.612V23.071a3.667,3.667,0,0,0,.664,2.471,2.681,2.681,0,0,0,2.144.824,27.843,27.843,0,0,0,3.233-.208h.011A27.771,27.771,0,0,1,99,25.95a17.137,17.137,0,0,1,4.086.424q.15.037.294.078a.931.931,0,1,0,.509-1.792q-.173-.049-.352-.094A18.969,18.969,0,0,0,99,24.087a29.657,29.657,0,0,0-3.784.221A25.955,25.955,0,0,1,92.2,24.5a1.053,1.053,0,0,1-.732-.176c-.022-.025-.213-.276-.213-1.257V3.533a2.151,2.151,0,0,1,.3-1.374,1.4,1.4,0,0,1,1.028-.3H113.9a.269.269,0,0,1,.052.033.679.679,0,0,1,.15.249l.007.017a3.623,3.623,0,0,1,.218.959,14.692,14.692,0,0,1,.077,1.683,7.877,7.877,0,0,1-.3,2.686L114.1,7.5a.864.864,0,0,1-.189.336H97.88a.931.931,0,0,0-.931.931v9.621a.931.931,0,0,0,1.04.925c.777-.091,1.565-.149,2.342-.172s1.62-.035,2.49-.035a21.688,21.688,0,0,1,6.229.816,12.022,12.022,0,0,1,4.438,2.323,9.65,9.65,0,0,1,2.69,3.759,13.888,13.888,0,0,1,.938,5.331,15.155,15.155,0,0,1-1.192,6.145,12.516,12.516,0,0,1-3.336,4.511,15.4,15.4,0,0,1-5.243,2.83,22.644,22.644,0,0,1-6.936,1,27.319,27.319,0,0,1-3.837-.252,29.057,29.057,0,0,1-3.263-.643,18.772,18.772,0,0,1-2.329-.762,5.081,5.081,0,0,1-.981-.49l-.021-.019a.851.851,0,0,1-.209-.26,2.856,2.856,0,0,1-.159-.543,7.222,7.222,0,0,1-.1-.972c-.023-.42-.034-.931-.034-1.518a15.3,15.3,0,0,1,.066-1.554,3.437,3.437,0,0,1,.167-.851l0-.012c.023-.061.042-.106.058-.139a3.252,3.252,0,0,1,.518.252l.015.009a20.553,20.553,0,0,0,1.973.925,20.277,20.277,0,0,0,2.97.922,18.08,18.08,0,0,0,4.224.43,16.324,16.324,0,0,0,3.906-.443l.009,0a8.218,8.218,0,0,0,3.158-1.521,7.1,7.1,0,0,0,2.032-2.658A9.058,9.058,0,0,0,109.287,32c0-.06,0-.119,0-.178a.931.931,0,1,0-1.862.03q0,.074,0,.149a7.229,7.229,0,0,1-.55,2.96,5.182,5.182,0,0,1-1.5,1.966,6.393,6.393,0,0,1-2.45,1.166,14.469,14.469,0,0,1-3.454.387,16.254,16.254,0,0,1-3.788-.379,18.451,18.451,0,0,1-2.7-.833,18.739,18.739,0,0,1-1.778-.831,3.173,3.173,0,0,0-1.513-.523,1.628,1.628,0,0,0-1.082.392,2.172,2.172,0,0,0-.643.979,5.16,5.16,0,0,0-.282,1.328,16.868,16.868,0,0,0-.076,1.749c0,.62.012,1.165.037,1.618a8.812,8.812,0,0,0,.137,1.244,4.552,4.552,0,0,0,.286.937l.008.018a2.691,2.691,0,0,0,.656.863,5.458,5.458,0,0,0,1.508.832,20.516,20.516,0,0,0,2.578.849l.01,0a30.89,30.89,0,0,0,3.477.686,29.167,29.167,0,0,0,4.1.271,24.5,24.5,0,0,0,7.509-1.091,17.254,17.254,0,0,0,5.876-3.183,14.368,14.368,0,0,0,3.834-5.179,17,17,0,0,0,1.35-6.9,15.726,15.726,0,0,0-1.08-6.045Z" transform="translate(-87.613 0)"/><path class="a" d="M289.329,289.651a.931.931,0,0,0-.931-.931h0a.931.931,0,1,0,.932.931Z" transform="translate(-268.853 -261.83)"/></g></g></svg>