<svg xmlns="http://www.w3.org/2000/svg" width="10.39" height="12.793" viewBox="0 0 10.39 12.793"><g transform="translate(0.003 0.001)"><path d="M222.7,154.7a.3.3,0,0,0-.3.3v5.662a.3.3,0,1,0,.6,0V155A.3.3,0,0,0,222.7,154.7Zm0,0" transform="translate(-215.738 -150.07)"/><path d="M104.7,154.7a.3.3,0,0,0-.3.3v5.662a.3.3,0,1,0,.6,0V155A.3.3,0,0,0,104.7,154.7Zm0,0" transform="translate(-101.273 -150.07)"/><path d="M.848,3.807v7.382a1.653,1.653,0,0,0,.439,1.14,1.475,1.475,0,0,0,1.07.463H8.026a1.475,1.475,0,0,0,1.07-.463,1.653,1.653,0,0,0,.439-1.14V3.807a1.144,1.144,0,0,0-.294-2.251H7.709V1.182A1.177,1.177,0,0,0,6.522,0H3.862A1.177,1.177,0,0,0,2.675,1.182v.375H1.141A1.144,1.144,0,0,0,.848,3.807Zm7.179,8.385H2.358a.949.949,0,0,1-.911-1V3.833h7.49v7.355a.949.949,0,0,1-.911,1ZM3.274,1.182A.577.577,0,0,1,3.862.6h2.66a.577.577,0,0,1,.587.584v.375H3.274Zm-2.133.974h8.1a.539.539,0,1,1,0,1.079h-8.1a.539.539,0,1,1,0-1.079Zm0,0" transform="translate(0 0)"/><path d="M163.7,154.7a.3.3,0,0,0-.3.3v5.662a.3.3,0,1,0,.6,0V155A.3.3,0,0,0,163.7,154.7Zm0,0" transform="translate(-158.506 -150.07)"/></g></svg>