<svg xmlns="http://www.w3.org/2000/svg" width="24.127" height="16.888" viewBox="0 0 24.127 16.888"><defs><style>.a{fill:#949cb0;}</style></defs><g transform="translate(0)"><path class="a" d="M50.105,82.888H34.021A4.026,4.026,0,0,1,30,78.867V70.021A4.026,4.026,0,0,1,34.021,66H50.105a4.026,4.026,0,0,1,4.021,4.021v8.846A4.026,4.026,0,0,1,50.105,82.888ZM34.021,67.608a2.415,2.415,0,0,0-2.413,2.413v8.846a2.415,2.415,0,0,0,2.413,2.413H50.105a2.415,2.415,0,0,0,2.413-2.413V70.021a2.415,2.415,0,0,0-2.413-2.413Z" transform="translate(-30 -66)"/><g transform="translate(5.629 4.021)"><path class="a" d="M91.63,114.846H89.15A3.153,3.153,0,0,1,86,111.7V109.15A3.153,3.153,0,0,1,89.15,106H91.63v1.608H89.15a1.544,1.544,0,0,0-1.542,1.542V111.7a1.544,1.544,0,0,0,1.542,1.542H91.63Z" transform="translate(-86 -106)"/><path class="a" d="M163.63,114.846H161.15A3.153,3.153,0,0,1,158,111.7V109.15a3.153,3.153,0,0,1,3.15-3.15h2.479v1.608H161.15a1.544,1.544,0,0,0-1.542,1.542V111.7a1.544,1.544,0,0,0,1.542,1.542h2.479Z" transform="translate(-150.762 -106)"/></g></g></svg>