<svg xmlns="http://www.w3.org/2000/svg" width="81.947" height="21.789" viewBox="0 0 81.947 21.789"><defs><style>.a{fill:#003087;}.b{fill:#009cde;}</style></defs><g transform="translate(-0.218 -2.8)"><path class="a" d="M10.063,2.8H3.674a.96.96,0,0,0-.9.737L.233,19.92a.461.461,0,0,0,.491.573H3.756a.96.96,0,0,0,.9-.737l.655-4.423a.891.891,0,0,1,.9-.737H8.261c4.178,0,6.635-2.048,7.29-6.062a5.077,5.077,0,0,0-.819-4.1C13.831,3.373,12.193,2.8,10.063,2.8ZM10.8,8.78c-.328,2.294-2.13,2.294-3.768,2.294H6.049L6.7,6.814A.459.459,0,0,1,7.2,6.4h.41c1.147,0,2.212,0,2.785.655A1.65,1.65,0,0,1,10.8,8.78Z"/><path class="a" d="M32.248,9.91H29.217a.459.459,0,0,0-.491.41l-.164.819-.246-.328c-.655-.983-2.13-1.311-3.6-1.311a7.011,7.011,0,0,0-6.8,6.144,5.38,5.38,0,0,0,1.147,4.669,4.888,4.888,0,0,0,3.85,1.556,6.049,6.049,0,0,0,4.26-1.72l-.164.819a.525.525,0,0,0,.491.655h2.785a.96.96,0,0,0,.9-.737L32.821,10.4C32.9,10.237,32.575,9.91,32.248,9.91Zm-4.178,5.9a3.446,3.446,0,0,1-3.44,2.949,2.49,2.49,0,0,1-2.048-.819,2.423,2.423,0,0,1-.491-2.13,3.446,3.446,0,0,1,3.44-2.949,2.768,2.768,0,0,1,2.048.819A3.076,3.076,0,0,1,28.07,15.807Z" transform="translate(-3.18 -1.212)"/><path class="a" d="M52.2,10H49.168a.86.86,0,0,0-.737.41l-4.26,6.226-1.8-5.98A.862.862,0,0,0,41.55,10H38.519a.53.53,0,0,0-.491.737l3.359,9.912-3.195,4.423a.519.519,0,0,0,.41.819h3.031a.86.86,0,0,0,.737-.41L52.608,10.737C52.854,10.491,52.608,10,52.2,10Z" transform="translate(-6.83 -1.302)"/><path class="b" d="M65.563,2.8H59.174a.96.96,0,0,0-.9.737l-2.539,16.3a.461.461,0,0,0,.491.573H59.5a.548.548,0,0,0,.573-.491l.737-4.669a.891.891,0,0,1,.9-.737h2.048c4.178,0,6.635-2.048,7.29-6.062a5.077,5.077,0,0,0-.819-4.1A6.4,6.4,0,0,0,65.563,2.8ZM66.3,8.78c-.328,2.294-2.13,2.294-3.768,2.294h-.983l.655-4.26A.459.459,0,0,1,62.7,6.4h.41c1.147,0,2.212,0,2.785.655C66.3,7.387,66.382,7.961,66.3,8.78Z" transform="translate(-10.037)"/><path class="b" d="M87.748,9.91H84.717a.459.459,0,0,0-.491.41l-.164.819-.246-.328c-.655-.983-2.13-1.311-3.6-1.311a7.011,7.011,0,0,0-6.8,6.144,5.38,5.38,0,0,0,1.147,4.669,4.888,4.888,0,0,0,3.85,1.556,6.049,6.049,0,0,0,4.26-1.72l-.164.819a.525.525,0,0,0,.491.655h2.785a.96.96,0,0,0,.9-.737L88.321,10.4A.617.617,0,0,0,87.748,9.91Zm-4.26,5.9a3.446,3.446,0,0,1-3.44,2.949A2.49,2.49,0,0,1,78,17.937a2.423,2.423,0,0,1-.491-2.13,3.446,3.446,0,0,1,3.44-2.949A2.768,2.768,0,0,1,83,13.678,2.423,2.423,0,0,1,83.488,15.807Z" transform="translate(-13.218 -1.212)"/><path class="b" d="M94.755,3.21,92.133,19.838a.461.461,0,0,0,.491.573h2.621a.96.96,0,0,0,.9-.737l2.621-16.3a.461.461,0,0,0-.491-.573H95.328A.546.546,0,0,0,94.755,3.21Z" transform="translate(-16.62)"/></g></svg>