<svg xmlns="http://www.w3.org/2000/svg" width="45.567" height="45.567" viewBox="0 0 45.567 45.567"><defs><style>.a{fill:#949cb0;}</style></defs><path class="a" d="M219.01,215a4,4,0,1,1-4-4A4.005,4.005,0,0,1,219.01,215Zm0,0" transform="translate(-192.221 -192.221)"/><path class="a" d="M138.868,120H125.34a5.346,5.346,0,0,0-5.34,5.34v13.528a5.346,5.346,0,0,0,5.34,5.34h13.528a5.346,5.346,0,0,0,5.34-5.34V125.34A5.346,5.346,0,0,0,138.868,120ZM132.1,138.779a6.675,6.675,0,1,1,6.675-6.675A6.682,6.682,0,0,1,132.1,138.779Zm7.654-12.994a1.335,1.335,0,1,1,1.335-1.335A1.335,1.335,0,0,1,139.758,125.785Zm0,0" transform="translate(-109.32 -109.32)"/><path class="a" d="M33.553,0H12.015A12.029,12.029,0,0,0,0,12.015V33.553A12.029,12.029,0,0,0,12.015,45.567H33.553A12.029,12.029,0,0,0,45.567,33.553V12.015A12.029,12.029,0,0,0,33.553,0Zm4,29.548a8.019,8.019,0,0,1-8.01,8.01H16.02a8.019,8.019,0,0,1-8.01-8.01V16.02a8.019,8.019,0,0,1,8.01-8.01H29.548a8.019,8.019,0,0,1,8.01,8.01Zm0,0"/></svg>