<svg xmlns="http://www.w3.org/2000/svg" width="22.522" height="22.523" viewBox="0 0 22.522 22.523"><defs><style>.a{fill:#131722;}</style></defs><path class="a" d="M307.992,152.734a.949.949,0,0,0-.2-.306l-2.815-2.814a.938.938,0,1,0-1.327,1.327l1.213,1.213h-5.242a.938.938,0,1,0,0,1.877h5.242l-1.213,1.213a.938.938,0,1,0,1.327,1.327l2.815-2.814a.93.93,0,0,0,.2-.306A.94.94,0,0,0,307.992,152.734Z" transform="translate(-285.541 -142.769)"/><path class="a" d="M15.968,13.139a.938.938,0,0,0-.938.938v4.692H11.276V3.754a.94.94,0,0,0-.669-.9L7.347,1.877h7.682V6.569a.938.938,0,1,0,1.877,0V.938A.938.938,0,0,0,15.968,0H.952a.836.836,0,0,0-.1.018.927.927,0,0,0-.4.139C.437.17.412.171.392.186S.382.2.374.207a.93.93,0,0,0-.25.3A.766.766,0,0,0,.1.583.89.89,0,0,0,.024.8a.584.584,0,0,0,0,.082C.026.9.014.92.014.938V19.708a.938.938,0,0,0,.755.92L10.153,22.5a.873.873,0,0,0,.184.019.939.939,0,0,0,.938-.938v-.938h4.692a.938.938,0,0,0,.938-.938V14.077A.938.938,0,0,0,15.968,13.139Z" transform="translate(-0.014)"/></svg>