<svg xmlns="http://www.w3.org/2000/svg" xmlns:xlink="http://www.w3.org/1999/xlink" width="41.329" height="41.329" viewBox="0 0 41.329 41.329"><defs><style>.a{fill:url(#a);}</style><linearGradient id="a" x1="0.5" x2="0.5" y2="1" gradientUnits="objectBoundingBox"><stop offset="0" stop-color="#fff"/><stop offset="1" stop-color="#cfcfcf"/></linearGradient></defs><path class="a" d="M20.664,0A20.664,20.664,0,1,0,41.329,20.664,20.686,20.686,0,0,0,20.664,0Zm0,10.586a6.426,6.426,0,1,1-6.426,6.38A6.442,6.442,0,0,1,20.664,10.586Zm0,26.489a16.279,16.279,0,0,1-10.355-3.7c2.959-3.236,6.565-5.039,10.355-5.039A13.857,13.857,0,0,1,31.02,33.377,16.279,16.279,0,0,1,20.664,37.076Z"/></svg>