<svg xmlns="http://www.w3.org/2000/svg" width="45.317" height="45.318" viewBox="0 0 45.317 45.318"><defs><style>.a{fill:#949cb0;}</style></defs><g transform="translate(0 0)"><path class="a" d="M42.827,2.493a8.183,8.183,0,0,0-6-2.493H8.5a8.186,8.186,0,0,0-6,2.493A8.186,8.186,0,0,0,0,8.5V36.821a8.186,8.186,0,0,0,2.493,6,8.185,8.185,0,0,0,6,2.493H36.824a8.512,8.512,0,0,0,8.5-8.5V8.5A8.186,8.186,0,0,0,42.827,2.493ZM34.67,17.437a7.822,7.822,0,0,1,.03.8,17.853,17.853,0,0,1-2.936,9.751,18.6,18.6,0,0,1-3.554,4.042,15.957,15.957,0,0,1-4.957,2.8,18.038,18.038,0,0,1-6.2,1.048,17.387,17.387,0,0,1-9.5-2.773,11.955,11.955,0,0,0,1.475.088,12.24,12.24,0,0,0,7.7-2.656A5.879,5.879,0,0,1,13.148,29.3a6.3,6.3,0,0,1-2.2-3.068,8.308,8.308,0,0,0,1.15.117,5.767,5.767,0,0,0,1.5-.236,6.2,6.2,0,0,1-3.629-2.139A5.891,5.891,0,0,1,8.5,20.034v-.059a7.316,7.316,0,0,0,2.95.767,5.844,5.844,0,0,1-2.685-5.163,6.136,6.136,0,0,1,.855-3.127,17.562,17.562,0,0,0,5.665,4.573,17.541,17.541,0,0,0,7.14,1.918,5.7,5.7,0,0,1-.147-1.416,6.2,6.2,0,0,1,6.2-6.2,5.889,5.889,0,0,1,4.515,1.948,12.324,12.324,0,0,0,3.954-1.5A6.025,6.025,0,0,1,34.2,15.224a13.134,13.134,0,0,0,3.569-1A12.049,12.049,0,0,1,34.67,17.437Z" transform="translate(-0.003 0)"/></g></svg>