<svg xmlns="http://www.w3.org/2000/svg" width="496.489" height="410.367" viewBox="0 0 496.489 410.367"><defs><style>.a,.e,.f,.g,.l,.q{fill:#00043b;}.b,.c,.h,.i,.k,.m{fill:none;}.b,.c,.e,.g,.h,.i,.k,.l,.m{stroke:#00043b;}.b,.f,.g,.h,.k,.m{stroke-miterlimit:10;}.c,.m{stroke-linecap:round;}.c,.e,.i,.j,.o{stroke-linejoin:round;}.d{fill:#ffa101;}.f{stroke-linecap:square;}.h{stroke-width:0.605px;}.j{fill:#322a7d;stroke:#51576f;}.k{stroke-width:7px;}.n,.o{fill:#ff9841;}.o{stroke:#ff9841;}.p,.q{stroke:none;}</style></defs><g transform="translate(0.5 3.5)"><g transform="translate(15.247 97.139)"><g transform="translate(0 0)"><g transform="translate(0)"><path class="a" d="M-431.534,57.243s4.485,2.243,7.476,2.243c4.111,0,5.233-3.364,3.737-5.607-1.121-1.495-2.931-1.664-4.859-2.243-3.737-1.121-10.84-4.485-16.447-3.364-7.476,1.5-10.093,10.093-9.345,14.952s2.617,9.345,2.617,11.587,0,4.859.373,5.233,2.243-1.5,3.364-3.364c.86-1.433,1.869-2.991,1.5-4.112s-3.364-2.99-1.5-5.607c1.087-1.521,2.991-1.5,3.738,0a18.242,18.242,0,0,1,1.5,7.1c0,2.617-.747,5.981,0,8.6s7.1,9.345,10.84,10.092,6.355,0,6.729-2.616-.374-6.729,0-7.1.045-1.012-.748-.747c-.56.187-1.682.187-1.682-.187,0-.747.187-.934,2.056-.934s2.243-.747,1.869-1.5-1.495-1.869-3.737-1.5-2.243,1.869-4.112,1.5-4.112-4.859-5.981-5.607-3.364-1.5-3.364-4.485,2.243-4.859,3.364-5.981a12.261,12.261,0,0,0,2.243-2.99A12.869,12.869,0,0,0-431.534,57.243Z" transform="translate(478.619 -48.046)"/><path class="b" d="M-421.978,61.5a45.953,45.953,0,0,1,.747,4.859c0,1.122-.374,4.486,0,5.607s2.617,6.728,2.617,7.476-2.991,2.243-2.991,2.243-2.99,1.5-2.99,2.99,1.121,3.365-.747,4.112-7.476,2.617-7.476,2.617a9.124,9.124,0,0,0-.374,2.617v2.99l-16.073-8.223s1.869-1.121,2.243-8.223-4.485-17.195,0-21.68,8.6-4.859,13.831-3.738S-421.978,61.5-421.978,61.5Z" transform="translate(477.849 -50.812)"/><path class="c" d="M-470.808,293.1a52.4,52.4,0,0,0,.045,6.329c4.84,3.195,26.223,5.284,44.78,2.089.8-1.413.355-5.346.355-5.346S-460.977,297.222-470.808,293.1Z" transform="translate(486.953 -151.239)"/><path class="c" d="M-461.886,302.337a17.021,17.021,0,0,1,.221-6.743" transform="translate(483.265 -152.287)"/><path class="c" d="M-449.55,304.159a17.172,17.172,0,0,1,.265-6.99" transform="translate(478.072 -152.95)"/><path class="c" d="M-435.87,305.12a17.306,17.306,0,0,1,.452-7.027" transform="translate(472.283 -153.339)"/><path class="c" d="M-420.929,298.519a16.968,16.968,0,0,1,.191,6.81" transform="translate(465.916 -153.518)"/><path class="c" d="M-405.944,298.6a17.174,17.174,0,0,1-.979,6.272" transform="translate(460.019 -153.554)"/><path class="d" d="M-489.5,117.152c1.043-2.155,4.3-1.308,6.915-1.682s10.695-4.712,13.758-4.6,12.408,2.356,19.51,13.57,9.719,23.549,10.84,31.025,9.719,31.025,2.99,64.666c-17.194,2.617-41.491,1.121-48.22-2.617-2.617-7.849-2.617-26.539-2.617-26.539s-8.6-5.233-11.961-12.335,17.942-41.491,18.316-42.986,1.121-2.617-.747-3.364S-492.3,122.946-489.5,117.152Z" transform="translate(498.64 -74.5)"/><path class="d" d="M-403.411,189.2s4.111,5.981,16.821,6.355,28.035-1.5,31.4,1.495.374,14.2-1.121,14.952-18.316,3.364-44.108-1.5S-403.411,189.2-403.411,189.2Z" transform="translate(462.457 -107.484)"/><path class="e" d="M-437.8,170.472s-2.243,10.84-5.981,15.325a40.434,40.434,0,0,0,6.355-8.223Z" transform="translate(475.539 -99.599)"/><path class="e" d="M-452.854,207.922s-4.485,4.112-4.485,5.607,2.99,3.365,8.223,3.365c-2.243-1.122-5.981-2.617-5.981-2.617S-451.732,209.043-452.854,207.922Z" transform="translate(481.248 -115.369)"/><path class="e" d="M-418.632,227.938s-.748,14.952-4.486,16.821c3.365,1.495,3.738.747,3.738.747S-415.642,236.162-418.632,227.938Z" transform="translate(466.838 -123.797)"/><path class="e" d="M-475.053,249.892a45.247,45.247,0,0,0,25.792,4.485v-.747A52.937,52.937,0,0,1-475.053,249.892Z" transform="translate(488.708 -133.042)"/><g class="f" transform="translate(485.901 -84.902)"><path class="p" d="M -467.07470703125 142.6454010009766 C -467.1120300292969 142.6209564208984 -467.1508483886719 142.5951385498047 -467.1904296875 142.56884765625 C -467.3460998535156 142.4654083251953 -467.5131530761719 142.3544006347656 -467.6831665039063 142.2610778808594 C -467.3278503417969 141.9394073486328 -466.65185546875 141.4687652587891 -466.2543029785156 141.2705993652344 C -465.944580078125 141.1165313720703 -465.40869140625 140.7081909179688 -464.409423828125 139.9394378662109 C -464.4039306640625 139.9352264404297 -464.3985595703125 139.9310913085938 -464.39306640625 139.9268646240234 C -464.6591796875 140.2593994140625 -464.89404296875 140.5653076171875 -465.0946655273438 140.8265838623047 C -465.3606567382813 141.1730194091797 -465.5903930664063 141.4722290039063 -465.7090759277344 141.5909118652344 C -466.2701416015625 142.1519927978516 -466.7775573730469 142.4964447021484 -467.07470703125 142.6454010009766 Z"/><path class="q" d="M -467.1234741210938 143.2030181884766 C -467.4291076660156 143.0322570800781 -467.892822265625 142.6582946777344 -468.2390747070313 142.5621643066406 C -468.9222106933594 142.3722839355469 -467.0615234375 141.1143035888672 -466.4773864746094 140.8231201171875 C -465.5083312988281 140.3410949707031 -460.1457824707031 135.5703125 -458.0914001464844 135.5703125 C -458.0165405273438 135.5703125 -457.9457397460938 135.5766906738281 -457.8800354003906 135.5898132324219 C -461.6180725097656 136.3377685546875 -464.6081848144531 141.1970977783203 -465.3554992675781 141.9444580078125 C -466.1034240722656 142.6923980712891 -466.7917785644531 143.1098175048828 -467.1234741210938 143.2030181884766 Z"/></g><path class="g" d="M-314.784,203.946s1.073,8.71-3.073,14.517a6.513,6.513,0,0,0,4.048-1.821C-313.43,215.7-311.589,206.343-314.784,203.946Z" transform="translate(422.514 -113.694)"/><path class="b" d="M-311.064,203.826s4.425-3.687,9.355-4.055,4.977,1.382,6.314,2.027,4.562,1.8,2.3,3.088-6.636-.6-7.973-1.705" transform="translate(419.653 -111.915)"/><path class="b" d="M-313.608,222.55a19.364,19.364,0,0,1,5.207.606c2.3.691,5.39,1.749,7.51,1.7s6.953-3.087,7.51-3.364c.254-.123,1.783-1.054,3.446-2.134l0,0c.819-.531,1.667-1.1,2.411-1.626a.083.083,0,0,0,.019-.015" transform="translate(420.724 -119.493)"/><path class="b" d="M-268.681,210.75c.038-.789.43-1.821,1.518-1.716a1.894,1.894,0,0,1,.673.179c1.1.546.8,2.048.064,3.046a12.146,12.146,0,0,1-2.142,1.8l-.008-.236V213.8l-.015-.508" transform="translate(401.806 -115.834)"/><path class="c" d="M-285.469,196.136l12.1-8.347,6.96,7.326-7.162,5.155" transform="translate(408.875 -106.891)"/><path class="c" d="M-295.162,206.8l-4.183,2.886,6.855,8,5.4-3.887" transform="translate(414.718 -114.895)"/><path class="c" d="M-274.021,213.376a2.567,2.567,0,0,1,1.372-2.03,1.839,1.839,0,0,1,1.529.116c.437.266.659,2.351-.109,3.805" transform="translate(404.055 -116.763)"/><g transform="translate(13.614 148.463)"><path class="c" d="M-470.587,304.5l-.12,131.964,17.618-.369L-437.033,309.7" transform="translate(473.263 -304.5)"/><path class="e" d="M-475.122,528.5l1.137,6.947H-456.3l2.4-6.947Z" transform="translate(475.122 -398.825)"/><path class="b" d="M-405.164,307.649s15.116,63.411,16.836,73.855-5.405,54.933-5.405,54.933l-20.032.86s1.719-44.609,1.354-46.575c-.292-1.544-6.407-28.442-9.027-39.948" transform="translate(452.517 -305.826)"/><path class="e" d="M-411.225,528.746l.8,5.653s19.355.085,20.523-.246c.829-.812,1.9-5.653,1.9-5.653Z" transform="translate(448.216 -398.825)"/><path class="b" d="M-468.855,539.723a76.241,76.241,0,0,1-.783,8.341" transform="translate(472.813 -403.551)"/><path class="b" d="M-446.773,539.723s-.645,8.618-.322,10.047" transform="translate(463.359 -403.551)"/><path class="b" d="M-401.38,537.183a81.234,81.234,0,0,1-.313,8.368" transform="translate(444.202 -402.481)"/><path class="b" d="M-380.752,536.15s-.169,8.637.205,10.049" transform="translate(435.4 -402.046)"/><g transform="translate(1.146 143.799)"><path class="a" d="M-443.121,563.7a29.073,29.073,0,0,1-10.446-1.638,27.225,27.225,0,0,1-10.354-7.844c-5.529.5-6.864-1.736-7.469-1.248-2.627,2.12-1.522,13.41-1.522,13.41s2.585,2.443,14.521,3.088c12.853.695,21.09,1.067,21.094-4.01a2.682,2.682,0,0,0-.912-2C-439.254,563.557-441.026,563.7-443.121,563.7Z" transform="translate(473.143 -552.897)"/><path class="a" d="M-445.467,561.5c4.284,1.739,10.2,1.647,13.434,1.428-2.534-1.273-6.582-1.97-9.744-3.374-2.677-1.188-7.88-5.445-7.88-5.445s.522-.321-5.252.43A26.308,26.308,0,0,0-445.467,561.5Z" transform="translate(465.465 -553.379)"/></g><g transform="translate(40.409 141.795)"><path class="a" d="M-376.678,558.8a30.272,30.272,0,0,1-9.965-1.421,25.734,25.734,0,0,1-9.878-6.8c-5.275.431-6.549-1.505-7.126-1.082-2.506,1.839-1.452,11.631-1.452,11.631s2.467,2.119,13.854,2.678c12.261.6,20.119.925,20.123-3.478a2.242,2.242,0,0,0-.87-1.738C-372.989,558.681-374.68,558.8-376.678,558.8Z" transform="translate(405.32 -549.435)"/><path class="a" d="M-378.916,556.9c4.087,1.507,9.734,1.429,12.816,1.238-2.418-1.1-6.279-1.708-9.3-2.926-2.554-1.031-7.518-4.723-7.518-4.723s.5-.279-5.01.373A25,25,0,0,0-378.916,556.9Z" transform="translate(397.994 -549.853)"/></g></g><path class="c" d="M-278.67,217.97s.1-.318.288-.751c.366-.83,1.062-2.075,2.019-2.243a3.366,3.366,0,0,1,.385-.045c1.137-.094,2.489,1.5.759,3.252l-.277.181" transform="translate(406.012 -118.318)"/><path class="c" d="M-268.713,212.074" transform="translate(401.82 -117.117)"/></g></g><g transform="translate(225.488 21.158)"><g transform="translate(0)"><g transform="translate(110.316 247.631)"><g transform="translate(0 4.795)"><path class="a" d="M460.136,512.284c1.517-.921,5.757-3.785,7.073-7.817.03-.078.055-.16.078-.243,2.391,1.818,3.4,3.554,4.519,4s3.141,1.122,4.15,2.3c.048.055.1.113.151.168l0,0a16.427,16.427,0,0,1-1.354,4.628c-.385.877-9.526,15.125-13.751,16.913-2.749,1.163-8.509,1.637-10.821,1.784-.092-1.163-.2-4.021.774-4.993a25.334,25.334,0,0,1,6-4.076c2.244-1.084,2.749-2.094,3.028-3.5s1.119-6.279-.392-8.857C459.587,512.6,459.791,512.492,460.136,512.284Z" transform="translate(-450.119 -504.225)"/></g><path class="b" d="M450.177,534.023c-.092-1.163-.2-4.021.774-4.993a25.334,25.334,0,0,1,6-4.076c2.244-1.084,2.749-2.094,3.028-3.5s1.119-6.279-.392-8.857c0,0,.2-.109.549-.318,1.517-.921,5.757-3.785,7.073-7.817.03-.078.055-.16.078-.243,2.391,1.818,3.4,3.554,4.519,4s3.141,1.122,4.15,2.3c.048.055.1.113.151.168,1.027,1.139,2.674,2.459,2.51,3.966-.167,1.586-7.5,12.872-10.467,16.841a9.374,9.374,0,0,1-2.9,2.578c-.907.535-8.131,3.076-12.782,2.964a2.9,2.9,0,0,1-2.244-2.52S450.2,534.333,450.177,534.023Z" transform="translate(-450.119 -499.43)"/><path class="h" d="M450.222,539.026c2.312-.147,8.073-.62,10.821-1.783,4.226-1.787,13.366-16.036,13.751-16.913a16.427,16.427,0,0,0,1.354-4.628" transform="translate(-450.164 -504.434)"/><path class="b" d="M474.444,495.724a43.21,43.21,0,0,0,3.37,5.037c.208.269.331.423.331.423" transform="translate(-460.724 -495.724)"/><path class="b" d="M461.142,508.494a10.987,10.987,0,0,1,1.93,2.2c.71,1.153,1.5,2.7,1.869,3.451.139.273.218.44.218.44" transform="translate(-454.925 -501.291)"/></g><g transform="translate(77.79 262.996)"><g transform="translate(0.634 9.498)"><path class="a" d="M423.825,548.858h0c-1.767.362-7.561,1.528-9.406,1.623-2.186.113-12.165.447-17.1-.225-2.227-.3-3.268-1.03-3.735-1.736h0a7.1,7.1,0,0,1,1.106-1.992c1.783-2.138,7.09-4.287,9.194-4.737,1.988-.423,8.894-1.989,8.894-1.989a.027.027,0,0,1,.011,0c1.507.648,4.979.7,7.533.641h.041c.887,0,1.8-.03,2.7-.112a.855.855,0,0,0,.137-.011.279.279,0,0,0,.054,0l.1-.007v0c.034,0,.065,0,.1-.007C423.621,542.661,423.8,546.079,423.825,548.858Z" transform="translate(-393.577 -539.803)"/></g><path class="b" d="M438.084,532.98l.1-.007v0c0-.2.014-7.882.1-9.959-2.271,1.095-9.846-.047-9.846-.047s.027,7.394-.826,9.5" transform="translate(-407.779 -522.964)"/><path class="b" d="M441.055,540.851c1.221-.031,2.23-.085,2.7-.112l.137-.011" transform="translate(-413.641 -530.708)"/><path class="b" d="M427.626,539.809c1.507.648,4.979.7,7.533.641" transform="translate(-407.787 -530.308)"/><path class="b" d="M422.855,540.311c.034,0,.065,0,.1-.007.178,2.357.355,5.774.382,8.554.028,2.48-.065,4.458-.382,4.734-.672.59-21.026,3.2-30.19.337a8.461,8.461,0,0,1,.324-5.409,7.1,7.1,0,0,1,1.106-1.992c1.784-2.138,7.09-4.287,9.195-4.737,1.988-.423,8.894-1.989,8.894-1.989" transform="translate(-392.453 -530.305)"/><path class="b" d="M446.086,540.718a.289.289,0,0,0,.054,0,.457.457,0,0,0,.1-.01" transform="translate(-415.835 -530.698)"/><path class="b" d="M441.055,540.851c.887,0,1.8-.031,2.7-.112a.849.849,0,0,0,.137-.011" transform="translate(-413.641 -530.708)"/><path class="b" d="M440.982,540.946h.041" transform="translate(-413.609 -530.803)"/><path class="b" d="M427.626,539.809a47.735,47.735,0,0,0,7.533.641" transform="translate(-407.787 -530.308)"/><path class="b" d="M427.607,539.8a.026.026,0,0,1,.011,0" transform="translate(-407.779 -530.305)"/><path class="h" d="M393.584,555.258c.467.706,1.507,1.433,3.734,1.736,4.935.672,14.914.338,17.1.225,1.845-.1,7.639-1.262,9.406-1.623" transform="translate(-392.946 -537.043)"/></g><path class="b" d="M451.831,448.163c.006.006.006.006,0,.011,8.139,10.621,16.673,21.71,16.583,22.161.1.141-1.918,2.194-4.433,4.653-2.561,2.5-5.64,5.432-7.5,7.2-1.015.959-1.67,1.579-1.686,1.6,0,0-1.692-2.2-4.349-5.669" transform="translate(-339.944 -227.359)"/><path class="b" d="M404.014,372.727c-7.293-9.561-13.5-17.762-13.78-18.309a15.412,15.412,0,0,1-1.85-6.865c0-3,5.043-40.73,6.893-48.13,1.523-6.1,2.25-24.671,2.459-31,.039-1.348.062-2.138.062-2.138l5.387-1.833s.068.97.2,2.707v.006c.028.4.062.835.1,1.314" transform="translate(-312.889 -147.27)"/><path class="b" d="M438.675,299.523a45.576,45.576,0,0,0-2.7,11.772c-.192,1.851-1.466,28.659-2.623,53.348.006.006.006.006,0,.011-.525,11.287-1.027,22.133-1.388,29.945-.271,5.878-.468,10.041-.53,11.388-1.777,1.332-4.9,1.54-8.088,1.281a57.984,57.984,0,0,1-10.728-2.121s-.355-22.37-.017-32.292c.028-.761.023-1.974-.011-3.559-.378-19.087-4.529-92.662-4.529-96.852v-7.231l.169-.063,3.728-1.415v-.006l7.13-2.707,11.676-4.44a81.163,81.163,0,0,1,5.195,7.034c2.961,4.479,6.216,10.39,6.915,15.556C444.225,289.094,440.356,295.151,438.675,299.523Z" transform="translate(-321.469 -143.838)"/><path class="b" d="M427.61,264.45a88.1,88.1,0,0,1,6.521,24.628c1.944,15.828-.7,100.511-2.261,121.62" transform="translate(-329.99 -147.268)"/><path class="a" d="M277.109,247.352c-.818.609-20.131.84-22.505,0-.5-.175,1.878-4.868,6.131-7.53a3.743,3.743,0,0,0,1.681.214,41.171,41.171,0,0,1,7.321-.536c-3.491.339-7.152,1.106-7.53,1.608s-.632.942-.547,1.285,1.388.39,4.71-.2a18.057,18.057,0,0,1,4.67-.423s-5.8.265-6.351,1.708,1.811,1.32,1.811,1.32a46.505,46.505,0,0,1,6.6-.8,9.49,9.49,0,0,1,3.13.632A5.982,5.982,0,0,1,277.109,247.352Z" transform="translate(-254.539 -136.379)"/><path class="i" d="M291.755,242.014c-1.8.259-5.172,1.258-8.066,1.258a9.648,9.648,0,0,1-3.232-.587,9.491,9.491,0,0,0-3.131-.632,46.5,46.5,0,0,0-6.6.8s-2.358.124-1.811-1.32,6.351-1.709,6.351-1.709a18.058,18.058,0,0,0-4.67.423c-3.322.587-4.625.541-4.71.2s.169-.79.547-1.286,4.039-1.269,7.53-1.608a41.176,41.176,0,0,0-7.321.536,3.743,3.743,0,0,1-1.681-.214c-.474-.192-.688-.457-.711-.57-.045-.214-.085-.716,1.342-1.218,1.41-.5,5.7-.874,7.564-1.083" transform="translate(-258.767 -134.431)"/><path class="c" d="M290.9,236.348a9.465,9.465,0,0,1-2.634-.04c-1.388-.254-8.872-3.322-11.146-3.954a48.473,48.473,0,0,0-14.253-1.01c-.965.508-.756,1.179,0,1.557.733.367,8.218.536,9.414.434.034-.006.068-.006.09-.011" transform="translate(-257.886 -132.763)"/><path class="b" d="M316.521,245.615c-1.681.248-3.305-.474-3.413-.9a15.708,15.708,0,0,1-.118-1.6c-.006-.186-.011-.378-.017-.581-.023-.756-.034-1.585-.023-2.273.011-.462.028-.863.062-1.145a1.058,1.058,0,0,1,.1-.4c.254-.367,3.209-1.038,3.869-1.179" transform="translate(-280.002 -135.538)"/><path class="b" d="M312.994,246.4l1.01.028,2.538.062" transform="translate(-280.022 -139.4)"/><line class="b" x1="3.199" y2="0.29" transform="translate(32.946 104.437)"/><path class="b" d="M406.408,69.71a8.633,8.633,0,0,0-1.065,5.214,68.373,68.373,0,0,1,.514,7.737c-.121,1.457-.794,6.447-1.971,8.129.28,1.177,2.243,1.065,2.523,1.457a26.861,26.861,0,0,1,.616,6.055c0,2.018,3.2,2.074,4.429,1.626s6.728-2.354,9.867-4.877" transform="translate(-319.647 -62.371)"/><path class="b" d="M422.9,121a43.114,43.114,0,0,1,.638,6.391c.044,6.184-1.095,7.739-1.095,7.739" transform="translate(-327.739 -84.729)"/><path class="j" d="M361.566,159.971c2.4-4.093,4.457-3.112,8.577-7.316s6.475-7.737,6.77-9c1.388-.253,16.525-1.178,17.366,0s3.2,3.952,3.2,3.952.925,11.857,0,18-5.55,14.464-6.643,20.772,1.093,19.931,5.887,27.752c-4.541-.673-8.157-1.43-10.764-1.262s-9.587,2.1-12.53,2.607a26.047,26.047,0,0,1-6.644,0c-1.513-1.177-2.691-10.848-2.943-12.278s-.168-14.044-.168-14.044l-8.493,7.821a18.009,18.009,0,0,1-3.2,2.018c-1.261.5-3.111,2.1-33.386,5.8-.673-1.009-.589-8.409-.589-8.409l26.827-7.652a34.183,34.183,0,0,0,4.289-1.851c.841-.588,11.016-12.951,13.539-16.4A9.143,9.143,0,0,1,361.566,159.971Z" transform="translate(-282.205 -94.353)"/><path class="a" d="M403.325,61.879a4.59,4.59,0,0,1,3.18-3.408c2.046-.682,5.778-.125,7.5-.341,2.729-.341,8.7-2.784,16.2-.4s8.7,5.854,9.38,8.241,1.364,6.139,2.046,6.822,4.093,3.751,4.775,7.5-.682,8.867-.682,9.891,3.752,4.434,3.07,8.185-4.029,8.966-7.162,10.914a11.916,11.916,0,0,1-10.914,1.023c-3.6-1.459-3.7-.683-8.526-.683-3.07,0-6.814-2.77-6.139-6.821.341-2.046,1.364-3.07,1.706-4.775s-1.023-3.07-1.023-4.433,1.023-3.07,1.023-3.752a43.271,43.271,0,0,1,0-6.139c.341-2.046,1.364-3.411,1.364-5.8s-4.093-3.751-4.093-3.751a24.83,24.83,0,0,1-5.115-5.116c-2.046-3.07-3.752-2.387-4.775-3.07A4.224,4.224,0,0,1,403.325,61.879Z" transform="translate(-319.395 -56.698)"/><path class="a" d="M399.114,206.226s15.305-14.521,21.921-23.6c-2.579,4.822-15.866,22.874-21.921,25.957C399.17,207.291,399.114,206.226,399.114,206.226Z" transform="translate(-317.567 -111.595)"/></g></g><g transform="translate(121.508 132.775)"><rect class="a" width="148.13" height="11.371" rx="1.864" transform="translate(0)"/><line class="b" y2="164.596" transform="translate(73.687 6.37)"/><rect class="a" width="26.238" height="5.865" rx="0.641" transform="translate(60.568 8.966)"/><rect class="a" width="57.073" height="10.7" rx="0.576" transform="translate(45.212 162.705)"/></g><g transform="translate(167.871 89.708)"><path class="i" d="M194.431,220.027l-7.4,19.342h16.062Z" transform="translate(-187.031 -196.452)"/><line class="c" x2="18.613" y2="42.917" transform="translate(1.858)"/></g></g><g transform="translate(304.61 0)"><ellipse class="k" cx="23.238" cy="23.238" rx="23.238" ry="23.238" transform="translate(0 0)"/><path class="c" d="M731.381,149.1l7.252-11.945-4.693-9.812" transform="translate(-714.58 -113.86)"/></g><g transform="translate(401.493 260.492)"><path class="l" d="M1358.155,483.589h-23.015a.869.869,0,0,1-.869-.869l-1.44-23.622a.869.869,0,0,1,.869-.869h25.9a.869.869,0,0,1,.869.869l-1.44,23.622A.869.869,0,0,1,1358.155,483.589Z" transform="translate(-1302.719 -337.714)"/><path class="b" d="M1365.032,275.381s6.824-26.379,7.516-34.878c1.156-14.207-7.049-38.47-8.972-47.736-2.77-13.355.568-30.759.568-30.759" transform="translate(-1321.103 -154.013)"/><path class="b" d="M1390.936,184.138a28.228,28.228,0,0,1-7.756,12.924c-4.083,4.029-14.6,7.913-14.1,15.22" transform="translate(-1325.187 -167.737)"/><path class="m" d="M1425.024,271.783s-3.694,10.3-12.36,15.983c-4.8,3.146-21.225,9.613-23.38,16.612" transform="translate(-1337.728 -222.09)"/><path class="l" d="M1433.941,163.335c-1.634-.141-5.273,1.295-7.246,3.438a4.4,4.4,0,0,0-1.043,4.7C1427,172.206,1434.226,165.892,1433.941,163.335Z" transform="translate(-1360.094 -154.83)"/><path class="l" d="M1411.666,183.15c-1.487-.581-3.959-3.542-4.645-6.45a5.037,5.037,0,0,1,1.35-4.936C1409.9,171.655,1413.141,180.836,1411.666,183.15Z" transform="translate(-1348.631 -160.063)"/><path class="l" d="M1381.7,215.676c1.4-.714,3.536-3.858,3.925-6.775a4.962,4.962,0,0,0-1.8-4.707C1382.311,204.235,1380.027,213.551,1381.7,215.676Z" transform="translate(-1332.66 -180.174)"/><path class="l" d="M1403.807,305.6c-1.472.863-3.593,4.393-3.841,7.56a5.306,5.306,0,0,0,2.226,4.948C1403.819,317.962,1405.738,307.776,1403.807,305.6Z" transform="translate(-1344.34 -243.06)"/><path class="l" d="M1457.3,282.424a6.535,6.535,0,0,0,.791,4.8,3.08,3.08,0,0,0,2.722,1.545C1461.516,288.152,1458.937,282.784,1457.3,282.424Z" transform="translate(-1379.792 -228.689)"/><path class="l" d="M1423.2,282.424c-.39.9,1.692,4.613,3.137,5.9a3.556,3.556,0,0,0,3.489.813C1430.126,283.872,1424.842,282.784,1423.2,282.424Z" transform="translate(-1358.733 -228.689)"/><path class="l" d="M1433.2,233.987c-.679.7.094,4.991,1.064,6.749a3.855,3.855,0,0,0,3.112,2.072C1439.431,237.941,1434.67,234.939,1433.2,233.987Z" transform="translate(-1364.803 -198.65)"/><path class="l" d="M1253.557,296.08c.175.959,4.116,2.824,6.111,3.057a3.854,3.854,0,0,0,3.495-1.329C1260.4,293.308,1255.186,295.438,1253.557,296.08Z" transform="translate(-1253.557 -236.495)"/><path class="l" d="M1286.091,330.655c.228.626,4.181.685,6.139.209a5.98,5.98,0,0,0,3.327-2.067C1292.592,326.487,1287.641,329.675,1286.091,330.655Z" transform="translate(-1273.733 -256.937)"/><path class="l" d="M1325.208,355.987c.226.662,4.806.484,7.1-.15a8.062,8.062,0,0,0,3.984-2.439C1333,351.083,1327.064,354.833,1325.208,355.987Z" transform="translate(-1297.991 -272.244)"/><path class="l" d="M1478.348,255.093a10.409,10.409,0,0,0-.342,5.032,2.053,2.053,0,0,0,1.88,1.533C1480.911,260.837,1479.832,255.26,1478.348,255.093Z" transform="translate(-1392.644 -211.739)"/><path class="l" d="M1340.769,210.439c.14,1.289,1.938,3.855,4.072,5.009a4.09,4.09,0,0,0,4.155-.012C1349.406,214.261,1342.9,209.773,1340.769,210.439Z" transform="translate(-1307.641 -184.005)"/><path class="l" d="M1373.445,320.655a7.856,7.856,0,0,0,2.109,5.067,2.951,2.951,0,0,0,3.148.853C1379.24,325.671,1375.184,320.535,1373.445,320.655Z" transform="translate(-1327.896 -252.396)"/><path class="l" d="M1347.171,180.847a6.822,6.822,0,0,0,2.7,4.3,3.217,3.217,0,0,0,3.244.388C1353.545,184.657,1348.894,180.531,1347.171,180.847Z" transform="translate(-1311.611 -165.685)"/><path class="l" d="M1354.1,140.96c-.4,1.149.084,4.05,1.426,5.89a3.84,3.84,0,0,0,3.526,1.669C1359.879,147.69,1356.176,141.256,1354.1,140.96Z" transform="translate(-1315.826 -140.96)"/><path class="l" d="M1410.679,227.428c-.223-1.625-2.426-4.857-4.952-6.309a4.4,4.4,0,0,0-4.812.019C1400.5,222.618,1408.248,228.269,1410.679,227.428Z" transform="translate(-1344.931 -190.237)"/><path class="l" d="M1381.445,265.1c-1.33.037-4.133,1.53-5.527,3.44a3.571,3.571,0,0,0-.408,3.885C1376.667,272.894,1381.91,267.137,1381.445,265.1Z" transform="translate(-1328.939 -217.946)"/><path class="l" d="M1485.639,286.9c-.625-1.175-3.208-3.022-5.539-3.422a3.568,3.568,0,0,0-3.661,1.361C1476.534,286.085,1484.021,288.222,1485.639,286.9Z" transform="translate(-1391.777 -229.302)"/><path class="l" d="M1328.449,316.258c-1.026.849-2.314,3.751-2.236,6.114a3.568,3.568,0,0,0,2.071,3.312C1329.485,325.341,1330.069,317.576,1328.449,316.258Z" transform="translate(-1298.613 -249.671)"/><path class="l" d="M1358.906,331.01a24.775,24.775,0,0,1,3.481,9.425c.215,2.3-.827,3.082-1.822,2.885C1359.156,342.063,1357.283,331.619,1358.906,331.01Z" transform="translate(-1318.499 -258.819)"/><path class="l" d="M1291.243,303.241a8.353,8.353,0,0,0,1.639-5.65,3.225,3.225,0,0,0-2.071-2.858C1289.751,295.117,1289.7,302.152,1291.243,303.241Z" transform="translate(-1276.186 -236.322)"/><path class="l" d="M1272.474,283.447a9.048,9.048,0,0,0,1.163-5.909,2.884,2.884,0,0,0-2.248-2.518C1270.381,275.576,1270.882,282.611,1272.474,283.447Z" transform="translate(-1264.292 -224.097)"/><path class="l" d="M1455.2,235.639c-1.348-.37-4.637.439-6.643,2.155a4.531,4.531,0,0,0-1.641,4.24C1447.931,242.919,1455.022,238.072,1455.2,235.639Z" transform="translate(-1373.42 -199.62)"/><path class="l" d="M1456.669,319.212c-.227-1.312-2.1-3.872-4.195-4.979a3.57,3.57,0,0,0-3.9.151C1448.273,315.6,1454.721,319.963,1456.669,319.212Z" transform="translate(-1374.488 -248.106)"/><path class="l" d="M1441.853,272.027c1.256.439,4.407.042,6.39-1.247a3.568,3.568,0,0,0,1.764-3.485C1449.092,266.446,1442.143,269.96,1441.853,272.027Z" transform="translate(-1370.328 -219.226)"/><path class="l" d="M1426.009,339.062c.506-1.527-.035-5.327-1.631-7.7a3.269,3.269,0,0,0-3.853-1.462C1419.516,331.024,1421.8,338.762,1426.009,339.062Z" transform="translate(-1356.955 -258.045)"/><path class="l" d="M1404.3,354.835c.288-1.05-1.384-3.609-4.1-5.171a8.123,8.123,0,0,0-5.48-.879C1393.662,349.575,1398.641,354.753,1404.3,354.835Z" transform="translate(-1341.01 -269.762)"/><path class="l" d="M1367.157,195.589a7.063,7.063,0,0,0-4.222,2.627,2.726,2.726,0,0,0-.311,2.967C1363.508,201.541,1367.512,197.144,1367.157,195.589Z" transform="translate(-1321.006 -174.838)"/><path class="l" d="M1304.054,194.34a7.362,7.362,0,0,0-2.045,4.763,2.841,2.841,0,0,0,1.5,2.723C1304.48,201.605,1305.284,195.459,1304.054,194.34Z" transform="translate(-1283.604 -174.063)"/><path class="l" d="M1317.42,211.549a8.911,8.911,0,0,0-5.334,3.11,3.254,3.254,0,0,0-.468,3.6C1312.71,218.714,1317.821,213.447,1317.42,211.549Z" transform="translate(-1289.348 -184.736)"/><path class="l" d="M1298.161,234.848a8.91,8.91,0,0,0,4.684,4.024,3.254,3.254,0,0,0,3.557-.735C1306.472,236.956,1299.824,233.849,1298.161,234.848Z" transform="translate(-1281.218 -199.064)"/><path class="l" d="M1302.008,274.49a8.912,8.912,0,0,0,6.121-.808,3.254,3.254,0,0,0,1.823-3.142C1309.12,269.7,1302.372,272.584,1302.008,274.49Z" transform="translate(-1283.604 -221.226)"/><path class="l" d="M1280.9,257.535a6.234,6.234,0,0,0,4.345,1.491,2.835,2.835,0,0,0,2.467-1.561C1287.5,256.606,1281.905,256.339,1280.9,257.535Z" transform="translate(-1270.511 -212.753)"/><path class="l" d="M1267.912,246.221a6.234,6.234,0,0,0,4.345,1.491,2.835,2.835,0,0,0,2.467-1.561C1274.518,245.292,1268.922,245.025,1267.912,246.221Z" transform="translate(-1262.459 -205.737)"/><path class="l" d="M1349.8,295.4a8.912,8.912,0,0,0,6.053,1.221,3.255,3.255,0,0,0,2.744-2.38C1358.083,293.174,1350.764,293.713,1349.8,295.4Z" transform="translate(-1313.243 -235.676)"/><path class="l" d="M1289.33,209.715a6.293,6.293,0,0,0,3.578,2.876,2.756,2.756,0,0,0,2.81-.632C1295.8,211.08,1290.659,208.932,1289.33,209.715Z" transform="translate(-1275.741 -183.493)"/><path class="l" d="M1336.864,250.4c2.235-.481,2.74-2.664,2.891-4.7a3.876,3.876,0,0,0-1.88-3.376C1336.811,242.534,1335.592,249.152,1336.864,250.4Z" transform="translate(-1304.882 -203.821)"/><path class="l" d="M1317.41,259.865c1.388-1.217.888-2.956.2-4.449a3.13,3.13,0,0,0-2.653-1.644C1314.285,254.337,1316.024,259.486,1317.41,259.865Z" transform="translate(-1291.54 -210.917)"/><path class="l" d="M1285.671,239.736c1.654-1.183,1.294-3.143.7-4.854a3.446,3.446,0,0,0-2.727-2.09C1282.847,233.34,1284.193,239.17,1285.671,239.736Z" transform="translate(-1272.067 -197.909)"/><path class="l" d="M1358.28,269.032c2.222-.65,2.073-3.015,1.594-5.2a5.71,5.71,0,0,0-3.058-3.5C1355.752,260.623,1356.538,267.777,1358.28,269.032Z" transform="translate(-1317.293 -214.989)"/><path class="l" d="M1370.941,169.547a7.061,7.061,0,0,0-4.971.109,2.726,2.726,0,0,0-1.78,2.394C1364.768,172.808,1370.454,171.065,1370.941,169.547Z" transform="translate(-1322.165 -158.441)"/><path class="l" d="M1372.976,154.557a7.062,7.062,0,0,0-4.971.109,2.726,2.726,0,0,0-1.781,2.394C1366.8,157.818,1372.489,156.076,1372.976,154.557Z" transform="translate(-1323.427 -149.145)"/><path class="b" d="M1437.372,248.618a31.672,31.672,0,0,0-2.031,6.621c-.533,3.365-.429,10.277-.616,11.981s-1.738,9.123-3.91,10.272" transform="translate(-1363.483 -207.724)"/><path class="b" d="M1305.529,213.249s3.694,10.087,7.246,14.491,11.792,9.931,13.923,11.785,7.478,8.156,7.781,9.517" transform="translate(-1285.787 -185.79)"/><path class="m" d="M1285.519,247.409c.071.431,12.218,11.691,24.134,9.744" transform="translate(-1273.378 -206.974)"/><path class="b" d="M1275.046,296.655c2.084,3.765,7.687,9.116,12.9,12.159,5.26,3.07,16.754,8.938,20.467,12.49s8.946,11.037,7.565,15.951" transform="translate(-1266.883 -237.514)"/></g><circle class="n" cx="10.773" cy="10.773" r="10.773" transform="translate(444.442 122.763)"/><path class="c" d="M-562.8,94.171l-9.481,10.486,4.74,19.249,17.525-4.751,3.735-14.067-12.371-.287-2.138,6.321" transform="translate(572.277 -65.982)"/><g transform="translate(147.377 84.443)"><path class="g" d="M1026.041,260.892H917.5a1.435,1.435,0,0,0-1.435,1.435v82.183a1.434,1.434,0,0,0,1.435,1.435h108.542a1.435,1.435,0,0,0,1.435-1.435V262.327A1.435,1.435,0,0,0,1026.041,260.892Zm-1.377,78.9a1.316,1.316,0,0,1-1.316,1.316H920.192a1.316,1.316,0,0,1-1.316-1.316V267.041a1.316,1.316,0,0,1,1.316-1.316h103.156a1.316,1.316,0,0,1,1.316,1.316Z" transform="translate(-916.064 -260.892)"/><path class="m" d="M977.893,443.884V427.851a.221.221,0,0,0-.221-.222h-18.36a.221.221,0,0,0-.222.222v16.033" transform="translate(-941.337 -358.832)"/><path class="m" d="M1047.3,443.884V427.851a.221.221,0,0,0-.222-.222h-18.36a.221.221,0,0,0-.222.222v16.033" transform="translate(-982.108 -358.832)"/><line class="m" x2="45.689" transform="translate(30.934 56.321)"/><line class="m" x1="32.51" transform="translate(37.611 60.714)"/><rect class="m" width="88.215" height="26.886" transform="translate(11.428 21.351)"/><line class="m" x1="32.51" transform="translate(37.699 63.35)"/><path class="m" d="M1115.445,443.884V427.851a.221.221,0,0,0-.222-.222h-18.36a.221.221,0,0,0-.221.222v16.033" transform="translate(-1022.134 -358.832)"/><line class="m" x1="21.016" y2="8.435" transform="translate(11.505 39.802)"/><line class="m" x1="15.684" y2="8.611" transform="translate(83.828 21.351)"/><line class="m" x2="32.51" transform="translate(39.72 30.834)"/><line class="m" x1="17.221" transform="translate(46.925 33.998)"/><rect class="m" width="12.828" height="3.69" transform="translate(49.211 40.152)"/><rect class="m" width="11.949" height="2.987" transform="translate(9.313 10.632)"/><line class="m" x2="7.381" transform="translate(68.748 11.51)"/><line class="m" x2="7.381" transform="translate(80.609 11.51)"/><line class="m" x2="7.381" transform="translate(92.383 11.51)"/></g><path class="o" d="M-565.325,515.3l13.761-11.08-.8,15.368Z" transform="translate(698.536 -186.327)"/></g></svg>